SplineFontDB: 3.2
FontName: John-Ambiguous
FullName: John Ambiguous
FamilyName: John Ambiguous
Weight: Why
Copyright: This font is in the public domain. Use is not recommended unless for intentionally poor design decisions.\n"Tofu" glyph constructed from glyphs from Ume-P-Mincho. Author of Ume-P-Mincho: HORAI Wataru.
UComments: "2025-8-16: Created with FontForge (http://fontforge.org)"
Version: 1.000
ItalicAngle: 0
UnderlinePosition: -25
UnderlineWidth: 12
Ascent: 205
Descent: 51
InvalidEm: 0
LayerCount: 2
Layer: 0 0 "Back" 1
Layer: 1 0 "Fore" 0
XUID: [1021 45 -1485458823 7446978]
FSType: 0
OS2Version: 0
OS2_WeightWidthSlopeOnly: 0
OS2_UseTypoMetrics: 1
CreationTime: 1755350615
ModificationTime: 1755353343
PfmFamily: 17
TTFWeight: 6900
TTFWidth: 5
LineGap: 23
VLineGap: 0
OS2TypoAscent: 0
OS2TypoAOffset: 1
OS2TypoDescent: 0
OS2TypoDOffset: 1
OS2TypoLinegap: 23
OS2WinAscent: 0
OS2WinAOffset: 1
OS2WinDescent: 0
OS2WinDOffset: 1
HheadAscent: 0
HheadAOffset: 1
HheadDescent: 0
HheadDOffset: 1
OS2Vendor: 'PfEd'
MarkAttachClasses: 1
DEI: 91125
LangName: 1033 "" "" "" "" "" "" "" "" "" "" "" "" "" "This font is a free software. Unlimited permission is granted to use, copy, and distribute it, with or without modification, either commercially and noncommercially. THIS FONT IS PROVIDED +ACIA-AS IS+ACIA WITHOUT WARRANTY."
Encoding: ISO8859-1
UnicodeInterp: none
NameList: AGL For New Fonts
DisplaySize: -24
AntiAlias: 1
FitToEm: 0
WinInfo: 0 38 20
BeginPrivate: 0
EndPrivate
BeginChars: 273 273

StartChar: two
Encoding: 50 50 0
Width: 128
Flags: HW
LayerCount: 2
Fore
SplineSet
72.8535037348 84.5297572074 m 1
 79.8004876238 92.4242510486 96.1658636269 111.021726173 96.1658636269 125.626048972 c 0
 96.1658636269 130.982499533 96.007022898 136.14675204 66.4783419107 138.519052273 c 0
 65.1143582404 138.597752267 63.6812704726 138.640274461 62.2027374167 138.640274461 c 0
 42.5566857085 138.640274461 26.4985293291 132.868983171 26.4985293291 114 c 0
 26.4985293291 106.114461225 29.1390270015 100.982746412 33.1551318146 96.9666415994 c 0
 43.8422087162 86.2795646984 66.2399226798 84.7481465337 72.8535037348 84.5297572074 c 1
11.5014706709 114 m 0
 11.5014706709 123.785181387 15.2403877325 153.683536545 60.9361269495 153.683536545 c 0
 107.208455567 153.683536545 111.121111084 136.505590751 111.121111084 125.345817743 c 0
 111.121111084 116.023370738 111.121111084 91.3859791997 33.2720684023 26.4985293291 c 1
 115 26.4985293291 l 2
 119.143890597 26.4985293291 122.498529329 23.1438507925 122.498529329 19 c 0
 122.498529329 14.8561094026 119.143850793 11.5014706709 115 11.5014706709 c 2
 12 11.5014706709 l 2
 7.85610940262 11.5014706709 4.50147067095 14.8561492075 4.50147067095 19 c 0
 4.50147067095 20.0510564472 4.76682069806 22.9112660165 7.44977506403 24.9629371155 c 0
 7.44977510505 24.9629374232 34.847901462 45.9158368754 59.4078492445 70.2969651646 c 1
 46.7536213124 71.9841335058 11.5014706709 79.7573897981 11.5014706709 114 c 0
EndSplineSet
EndChar

StartChar: nine
Encoding: 57 57 1
Width: 128
Flags: HW
LayerCount: 2
Fore
SplineSet
73.1468350101 84.5205992708 m 1
 79.1783041072 91.2510599909 96.1658636269 110.207320935 96.1658636269 125.626048972 c 0
 96.1658636269 130.982499533 96.007022898 136.14675204 66.4783419107 138.519052273 c 0
 65.1143582404 138.597752267 63.6812704726 138.640274461 62.2027374167 138.640274461 c 0
 42.5566857085 138.640274461 26.4985293291 132.868983171 26.4985293291 114 c 0
 26.4985293291 89.1976987157 56.9241507433 84.9973403489 73.1468350101 84.5205992708 c 1
59.319214467 70.3088246037 m 1
 46.6535480655 72.0094077478 11.5014706709 79.8088773937 11.5014706709 114 c 0
 11.5014706709 123.785181387 15.2403877325 153.683536545 60.9361269495 153.683536545 c 0
 107.208455567 153.683536545 111.121111084 136.505590751 111.121111084 125.345817743 c 0
 111.121111084 106.03479377 97.1926469246 86.8647681641 74.8636416715 64.535762911 c 0
 51.9926664737 41.6647877132 26.5967437442 23.0693021298 26.4298534957 22.9469159496 c 0
 25.1158123116 21.9832857638 23.5579061558 21.5014706709 22 21.5014706709 c 0
 17.8561094026 21.5014706709 14.5014706709 24.8561492075 14.5014706709 29 c 0
 14.5014706709 31.4326111073 15.6652922908 33.6561909836 17.5701465043 35.0530840504 c 0
 17.5701465045 35.0530840518 38.7615564438 50.5927986153 59.319214467 70.3088246037 c 1
122.498529329 9 m 0
 122.498529329 4.85610940262 119.143850793 1.50147067095 115 1.50147067095 c 2
 12 1.50147067095 l 2
 7.85610940262 1.50147067095 4.50147067095 4.85614920749 4.50147067095 9 c 0
 4.50147067095 13.1438905974 7.85614920749 16.4985293291 12 16.4985293291 c 2
 115 16.4985293291 l 2
 119.143890597 16.4985293291 122.498529329 13.1438507925 122.498529329 9 c 0
EndSplineSet
EndChar

StartChar: eight
Encoding: 56 56 2
Width: 128
Flags: HW
LayerCount: 2
Fore
SplineSet
22.245575117 37.6251343193 m 0
 22.245575117 28.3143206622 27.8167440434 6.74529905837 78.8543288574 4.51149955434 c 0
 94.7357681411 5.83354455199 101.7139072 10.072575034 104.665895234 13.0245630678 c 0
 107.370206305 15.7288741382 107.505338196 18.0085072418 107.518266779 18.4480592708 c 2
 104.624531269 46.4207219327 l 1
 101.641902878 55.2208047286 93.491671863 69.6835046936 59.0708445188 69.6835046936 c 0
 56.0439832238 69.6835046936 50.8088830703 69.4607628866 50.7253988942 69.4607628866 c 0
 48.4453851637 69.4607628866 44.0524071933 69.7070609371 38.9456841762 71.2830296306 c 1
 27.5414429558 59.1487842792 22.245575117 47.5201931465 22.245575117 37.6251343193 c 0
11.5014706709 114 m 0
 11.5014706709 123.785181387 15.2403877325 153.683536545 60.9361269495 153.683536545 c 0
 66.6800751291 153.683536545 80.8654905159 153.683536545 90.6995131773 143.849513883 c 0
 95.5912730374 138.957754023 97.976465216 132.947966157 97.976465216 126.432461208 c 0
 97.976465216 118.126379234 94.1644693552 104.489712739 74.6358377515 89.1035181419 c 0
 73.2802591223 88.0354864946 71.6401295611 87.5014706709 70 87.5014706709 c 0
 65.8561094026 87.5014706709 62.5014706709 90.8561492075 62.5014706709 95 c 0
 62.5014706709 96.064917584 62.7696127478 98.8522913424 65.3641622485 100.896481858 c 0
 68.1820790698 103.116658748 83.148172795 115.0201 83.148172795 125.85124728 c 0
 83.148172795 128.967204864 81.5871173114 138.640274325 62.2027364113 138.640274325 c 0
 42.5566856854 138.640274325 26.4985293291 132.86898316 26.4985293291 114 c 0
 26.4985293291 106.61986668 28.3881768316 84.4779168945 51.0653543696 84.4779168945 c 0
 51.4250606677 84.4779168945 51.6225550287 84.4890956807 51.6225550287 84.4890956807 c 0
 54.2097369405 84.6185090042 56.7396418708 84.6845298474 59.2102220154 84.6845298474 c 0
 114.116795429 84.6845298474 119.386278655 49.4747854072 119.458448965 48.7771390766 c 0
 122.510205887 19.2767018927 122.510205887 19.2767018927 122.510205887 18.6007403925 c 0
 122.510205887 -3.6978268129 90.670903937 -10.4985293291 79 -10.4985293291 c 0
 54.3957032613 -10.4985293291 7.26134463952 -0.402985205575 7.26134463952 37.0243404117 c 0
 7.26134463952 50.859673236 14.1296898386 65.5981513291 25.4376223463 78.6748150944 c 1
 21.1887087465 82.3179512884 11.5014706709 92.0688894297 11.5014706709 114 c 0
EndSplineSet
EndChar

StartChar: one
Encoding: 49 49 3
Width: 128
Flags: HW
LayerCount: 2
Fore
SplineSet
62 9 m 0
 58 9 55 12 55 16 c 2
 55 146 l 6
 55 150 58 153 62 153 c 4
 66 153 69 150 69 146 c 6
 69 16 l 2
 69 12 66 9 62 9 c 0
EndSplineSet
EndChar

StartChar: I
Encoding: 73 73 4
Width: 128
Flags: HW
LayerCount: 2
Fore
SplineSet
62 9 m 0
 58 9 55 12 55 16 c 2
 55 146 l 2
 55 150 58 153 62 153 c 0
 66 153 69 150 69 146 c 2
 69 16 l 2
 69 12 66 9 62 9 c 0
EndSplineSet
EndChar

StartChar: l
Encoding: 108 108 5
Width: 128
Flags: HW
LayerCount: 2
Fore
SplineSet
62 9 m 4
 58 9 55 12 55 16 c 6
 55 146 l 6
 55 150 58 153 62 153 c 4
 66 153 69 150 69 146 c 6
 69 16 l 6
 69 12 66 9 62 9 c 4
EndSplineSet
EndChar

StartChar: J
Encoding: 74 74 6
Width: 128
Flags: HW
LayerCount: 2
Fore
SplineSet
62 -21 m 4
 58 -21 55 -18 55 -14 c 6
 55 146 l 2
 55 150 58 153 62 153 c 0
 66 153 69 150 69 146 c 2
 69 -14 l 6
 69 -18 66 -21 62 -21 c 4
EndSplineSet
EndChar

StartChar: i
Encoding: 105 105 7
Width: 128
Flags: HW
LayerCount: 2
Fore
SplineSet
62 91 m 4
 58 91 55 94 55 98 c 4
 55 102 58 105 62 105 c 4
 66 105 69 102 69 98 c 4
 69 94 66 91 62 91 c 4
62 9 m 0
 58 9 55 12 55 16 c 2
 55 86 l 2
 55 90 58 93 62 93 c 0
 66 93 69 90 69 86 c 2
 69 16 l 2
 69 12 66 9 62 9 c 0
EndSplineSet
EndChar

StartChar: j
Encoding: 106 106 8
Width: 128
Flags: HW
LayerCount: 2
Fore
SplineSet
62 91 m 4
 58 91 55 94 55 98 c 4
 55 102 58 105 62 105 c 4
 66 105 69 102 69 98 c 4
 69 94 66 91 62 91 c 4
62 -21 m 0
 58 -21 55 -18 55 -14 c 2
 55 86 l 2
 55 90 58 93 62 93 c 0
 66 93 69 90 69 86 c 2
 69 -14 l 2
 69 -18 66 -21 62 -21 c 0
EndSplineSet
EndChar

StartChar: b
Encoding: 98 98 9
Width: 128
Flags: HW
LayerCount: 2
Fore
SplineSet
109.474683475 32.1383665929 m 0
 109.474683475 51.6104162911 101.021945577 73.3714527051 93.6966991411 80.6966991411 c 0
 92.8869834909 81.5064147913 92.3012671111 82.4558491823 91.9395500016 83.4676988905 c 1
 80.4218171454 69.2814733729 60.2253129328 48.9641530938 33.2720684023 26.4985293291 c 1
 109.213924831 26.4985293291 l 1
 109.372633432 28.0414389235 109.474683475 29.9547721572 109.474683475 32.1383665929 c 0
7.44977506403 24.9629371155 m 0
 10.2057678841 27.0706295212 96.1658636269 93.0706706942 96.1658636269 125.626048972 c 0
 96.1658636269 130.97963142 96.0190922685 136.15580605 66.397616005 138.525524151 c 0
 62.5090095861 138.836612665 59.5014706709 142.081401364 59.5014706709 146 c 0
 59.5014706709 150.143890597 62.8561492075 153.498529329 67 153.498529329 c 0
 68.5161109042 153.498529329 93.955884822 153.338893281 104.602228504 142.692549599 c 0
 109.138944855 138.155833247 111.121111084 132.182143223 111.121111084 125.345817743 c 0
 111.121111084 113.239362609 105.623828052 102.602641489 99.4354129782 93.4859726962 c 1
 110.854660347 92.8267483362 124.816453439 56.757304623 124.816453439 31.0281990378 c 0
 124.816453439 25.7498876156 123.984396436 11.5014706709 115 11.5014706709 c 2
 12 11.5014706709 l 2
 7.85610940262 11.5014706709 4.50147067095 14.8561492075 4.50147067095 19 c 0
 4.50147067095 20.0510564472 4.76682069806 22.9112660165 7.44977506403 24.9629371155 c 0
EndSplineSet
EndChar

StartChar: four
Encoding: 52 52 10
Width: 128
Flags: HW
LayerCount: 2
Fore
SplineSet
109.117098847 26.4985293291 m 1
 108.621949897 30.3303029536 104.946883408 34.4148912833 100.700697045 37.0871541345 c 1
 95.8356532157 26.4985293291 l 1
 109.117098847 26.4985293291 l 1
7.44977506403 24.9629371155 m 0
 10.2057678841 27.0706295212 96.1658636269 93.0706706942 96.1658636269 125.626048972 c 0
 96.1658636269 130.97963142 96.0190922685 136.15580605 66.397616005 138.525524151 c 0
 62.5090095861 138.836612665 59.5014706709 142.081401364 59.5014706709 146 c 0
 59.5014706709 150.143890597 62.8561492075 153.498529329 67 153.498529329 c 0
 68.5161109042 153.498529329 93.955884822 153.338893281 104.602228504 142.692549599 c 0
 109.138944855 138.155833247 111.121111084 132.182143223 111.121111084 125.345817743 c 0
 111.121111084 116.023370738 111.121111084 91.3859791997 33.2720684023 26.4985293291 c 1
 79.3251575191 26.4985293291 l 1
 90.7434029408 51.3500046586 90.7434029408 51.3500046586 91.6966991411 52.3033008589 c 0
 93.1601847879 53.7667865057 95.0800923939 54.4985293291 97 54.4985293291 c 0
 103.29747056 54.4985293291 124.189408299 43.1801408432 124.189408299 25.4179002687 c 0
 124.189408299 21.7156349961 122.63822179 11.5014706709 115 11.5014706709 c 2
 88.9451127511 11.5014706709 l 1
 86.0004822709 5.09256903743 84.809977616 2.50147067095 80 2.50147067095 c 0
 75.8561094026 2.50147067095 72.5014706709 5.85614920749 72.5014706709 10 c 0
 72.5014706709 10.5032299278 72.5517432003 11.0064598557 72.6522882589 11.5014706709 c 1
 12 11.5014706709 l 2
 7.85610940262 11.5014706709 4.50147067095 14.8561492075 4.50147067095 19 c 0
 4.50147067095 20.0510564472 4.76682069806 22.9112660165 7.44977506403 24.9629371155 c 0
EndSplineSet
EndChar

StartChar: a
Encoding: 97 97 11
Width: 128
Flags: HW
LayerCount: 2
Fore
SplineSet
99.474609375 32.138671875 m 0
 99.474609375 51.6103515625 91.021484375 73.37109375 83.6962890625 80.6962890625 c 0
 82.88671875 81.5068359375 82.30078125 82.4560546875 81.939453125 83.4677734375 c 1
 70.421875 69.28125 52 46 33.2720684023 26.4985293291 c 5
 99.2138671875 26.498046875 l 1
 99.373046875 28.041015625 99.474609375 29.955078125 99.474609375 32.138671875 c 0
4.50147067095 19 m 0
 4.50147067095 20.0510564472 4.76682069806 22.9112660165 7.44977506403 24.9629371155 c 2
 7.44977506403 24.9629371155 25.6240234375 46.509765625 50.4423828125 71.328125 c 0
 68.5126953125 89.3984375 83.6953125 109.108398438 85.6103515625 120.275390625 c 0
 86.22265625 123.84765625 89.32421875 126.498046875 93 126.498046875 c 0
 97.1435546875 126.498046875 100.498046875 123.143554688 100.498046875 119 c 0
 100.498046875 118.721679688 100.232421875 109.392578125 89.435546875 93.486328125 c 1
 100.854492188 92.8271484375 114.81640625 56.7568359375 114.81640625 31.0283203125 c 0
 114.81640625 29.4765625 114.755859375 27.9638671875 114.625 26.498046875 c 1
 133 26.4985293291 l 2
 137.143890597 26.4985293291 140.498529329 23.1438507925 140.498529329 19 c 0
 140.498529329 14.8561094026 137.143850793 11.5014706709 133 11.5014706709 c 2
 12 11.5014706709 l 2
 7.85610940262 11.5014706709 4.50147067095 14.8561492075 4.50147067095 19 c 0
EndSplineSet
EndChar

StartChar: o
Encoding: 111 111 12
Width: 128
Flags: HW
LayerCount: 2
Fore
SplineSet
109.474683475 32.1383665929 m 0
 109.474683475 51.6104162911 101.021945577 73.3714527051 93.6966991411 80.6966991411 c 0
 92.8869834909 81.5064147913 92.3012671111 82.4558491823 91.9395500016 83.4676988905 c 1
 80.4218171454 69.2814733729 60.2253129328 48.9641530938 33.2720684023 26.4985293291 c 1
 109.213924831 26.4985293291 l 1
 109.372633432 28.0414389235 109.474683475 29.9547721572 109.474683475 32.1383665929 c 0
4.50147067095 19 m 0
 4.50147067095 20.0510564472 4.76682069806 22.9112660165 7.44977506403 24.9629371155 c 2
 7.44977506403 24.9629371155 35.6241634281 46.5094881032 60.4425630292 71.3278877043 c 0
 78.5127051989 89.3980298741 93.6956468794 109.108587211 95.609905732 120.275097185 c 0
 96.2223519108 123.847699894 99.3237567227 126.498529329 103 126.498529329 c 0
 107.143890597 126.498529329 110.498529329 123.143850793 110.498529329 119 c 0
 110.498529329 118.721906826 110.232869382 109.392603499 99.4354129782 93.4859726962 c 1
 110.854660347 92.8267483362 124.816453439 56.757304623 124.816453439 31.0281990378 c 0
 124.816453439 25.7498876156 123.984396436 11.5014706709 115 11.5014706709 c 2
 12 11.5014706709 l 2
 7.85610940262 11.5014706709 4.50147067095 14.8561492075 4.50147067095 19 c 0
EndSplineSet
EndChar

StartChar: seven
Encoding: 55 55 13
Width: 128
Flags: HW
LayerCount: 2
Fore
SplineSet
62 9 m 0
 58 9 55 12 55 16 c 2
 55 146 l 2
 55 150 58 153 62 153 c 0
 66 153 69 150 69 146 c 2
 69 16 l 2
 69 12 66 9 62 9 c 0
69 146 m 0
 69 142 66 139 62 139 c 2
 43 139 l 6
 39 139 36 142 36 146 c 4
 36 150 39 153 43 153 c 6
 62 153 l 2
 66 153 69 150 69 146 c 0
EndSplineSet
EndChar

StartChar: three
Encoding: 51 51 14
Width: 128
Flags: HW
LayerCount: 2
Fore
SplineSet
72.8535037348 84.5297572074 m 1
 79.8004876238 92.4242510486 96.1658636269 111.021726173 96.1658636269 125.626048972 c 0
 96.1658636269 130.982499533 96.007022898 136.14675204 66.4783419107 138.519052273 c 0
 65.1143582404 138.597752267 63.6812704726 138.640274461 62.2027374167 138.640274461 c 0
 42.5566857085 138.640274461 26.4985293291 132.868983171 26.4985293291 114 c 0
 26.4985293291 106.114461225 29.1390270015 100.982746412 33.1551318146 96.9666415994 c 0
 43.8422087162 86.2795646984 66.2399226798 84.7481465337 72.8535037348 84.5297572074 c 1
11.5014706709 114 m 0
 11.5014706709 123.785181387 15.2403877325 153.683536545 60.9361269495 153.683536545 c 0
 107.208455567 153.683536545 111.121111084 136.505590751 111.121111084 125.345817743 c 0
 111.121111084 116.023370738 111.121111084 91.3859791997 33.2720684023 26.4985293291 c 1
 115 26.4985293291 l 2
 119.143890597 26.4985293291 122.498529329 23.1438507925 122.498529329 19 c 0
 122.498529329 14.5776502471 113.225466784 -7.49852932905 104 -7.49852932905 c 0
 99.8561094026 -7.49852932905 96.5014706709 -4.14385079251 96.5014706709 0 c 0
 96.5014706709 4.99243275763 99.4376416764 4.28631318785 103.503305306 11.5014706709 c 1
 12 11.5014706709 l 2
 7.85610940262 11.5014706709 4.50147067095 14.8561492075 4.50147067095 19 c 0
 4.50147067095 20.0510564472 4.76682069806 22.9112660165 7.44977506403 24.9629371155 c 0
 7.44977510505 24.9629374232 34.847901462 45.9158368754 59.4078492445 70.2969651646 c 1
 46.7536213124 71.9841335058 11.5014706709 79.7573897981 11.5014706709 114 c 0
EndSplineSet
EndChar

StartChar: five
Encoding: 53 53 15
Width: 128
Flags: HW
LayerCount: 2
Fore
SplineSet
122.511507167 18.5900766814 m 0
 122.511507167 -3.66725592694 90.7207921246 -10.4985293291 79 -10.4985293291 c 0
 74.8561094026 -10.4985293291 71.5014706709 -7.14385079251 71.5014706709 -3 c 0
 71.5014706709 0.921500987842 74.5133822204 4.16782995647 78.4054882905 4.47510148832 c 0
 103.160219926 6.42942240692 107.533788865 15.4573742383 107.532412213 18.3112134155 c 0
 107.369966482 19.8816117565 105.090840879 41.9130793782 104.624529912 46.4207280766 c 0
 101.570728522 55.430797804 93.2558588035 69.6877784869 59.143446722 69.6877784869 c 0
 56.1300332822 69.6877784869 50.8745354273 69.4648019322 50.7909810127 69.4648019322 c 0
 35.1060269911 69.4648019322 11.5014706709 79.5904063396 11.5014706709 114 c 0
 11.5014706709 123.785181387 15.2403877325 153.683536545 60.9361269495 153.683536545 c 0
 66.6800751291 153.683536545 80.8654905159 153.683536545 90.6995131773 143.849513883 c 0
 95.5912730374 138.957754023 97.976465216 132.947966157 97.976465216 126.432461208 c 0
 97.976465216 118.126379234 94.1644693552 104.489712739 74.6358377515 89.1035181419 c 0
 73.2802591223 88.0354864946 71.6401295611 87.5014706709 70 87.5014706709 c 0
 65.8561094026 87.5014706709 62.5014706709 90.8561492075 62.5014706709 95 c 0
 62.5014706709 96.064917584 62.7696127478 98.8522913424 65.3641622485 100.896481858 c 0
 68.1820790698 103.116658748 83.148172795 115.0201 83.148172795 125.85124728 c 0
 83.148172795 128.967204707 81.5871173185 138.640274286 62.2027367188 138.640274286 c 0
 42.5566854994 138.640274286 26.4985293291 132.868983063 26.4985293291 114 c 0
 26.4985293291 106.836630005 28.3148809385 84.47374239 50.9968293813 84.47374239 c 0
 51.349528906 84.47374239 51.5429735358 84.4846938829 51.5429735358 84.4846938829 c 2
 54.1318646134 84.6141927005 56.6642849212 84.680264032 59.1379969148 84.680264032 c 0
 73.3657959092 84.680264032 108.760648851 82.9974572544 119.146369296 50.2775895697 c 0
 119.63447551 48.7398271361 122.511507167 18.9087336483 122.511507167 18.5900766814 c 0
107.531347325 18.3526373858 m 1
 107.531347325 18.4444685365 107.520360505 18.4923738714 107.520360505 18.4923738714 c 1
 107.531347325 18.3526373858 l 1
EndSplineSet
EndChar

StartChar: S
Encoding: 83 83 16
Width: 128
Flags: HW
LayerCount: 2
Fore
SplineSet
26.4985293291 114 m 0
 26.4985293291 106.836630005 28.3148809385 84.47374239 50.9968293813 84.47374239 c 0
 51.349528906 84.47374239 51.5429735358 84.4846938829 51.5429735358 84.4846938829 c 2
 54.1318646134 84.6141927005 56.6642849212 84.680264032 59.1379969148 84.680264032 c 0
 73.3657959092 84.680264032 108.760648851 82.9974572544 119.146369296 50.2775895697 c 0
 119.241537923 49.9777639686 122.498529329 21.2097271888 122.498529329 19 c 0
 122.498529329 -0.584826435272 81.7080806649 -10.4985293291 39 -10.4985293291 c 0
 34.8561094026 -10.4985293291 31.5014706709 -7.14385079251 31.5014706709 -3 c 0
 31.5014706709 1.10561376662 34.7961479306 4.44314958232 38.8992627551 4.49785777998 c 0
 86.9282032749 5.13824365358 102.247309396 14.3916150231 106.173887804 18.3181934304 c 0
 106.827437625 18.9717432522 107.187384958 19.426488721 107.38559923 19.7303950397 c 2
 104.624530783 46.4207233667 l 1
 101.570728602 55.4307993279 93.2558581508 69.6877784869 59.143446722 69.6877784869 c 0
 56.1300332822 69.6877784869 50.8745354273 69.4648019322 50.7909810127 69.4648019322 c 0
 35.1060269911 69.4648019322 11.5014706709 79.5904063396 11.5014706709 114 c 0
 11.5014706709 123.785181387 15.2403877325 153.683536545 60.9361269495 153.683536545 c 0
 66.6800751291 153.683536545 80.8654905159 153.683536545 90.6995131773 143.849513883 c 0
 95.5912730374 138.957754023 97.976465216 132.947966157 97.976465216 126.432461208 c 0
 97.976465216 118.126379234 94.1644693552 104.489712739 74.6358377515 89.1035181419 c 0
 73.2802591223 88.0354864946 71.6401295611 87.5014706709 70 87.5014706709 c 0
 65.8561094026 87.5014706709 62.5014706709 90.8561492075 62.5014706709 95 c 0
 62.5014706709 96.064917584 62.7696127478 98.8522913424 65.3641622485 100.896481858 c 0
 68.1820790698 103.116658748 83.148172795 115.0201 83.148172795 125.85124728 c 0
 83.148172795 128.967204707 81.5871173185 138.640274286 62.2027367188 138.640274286 c 0
 42.5566854994 138.640274286 26.4985293291 132.868983063 26.4985293291 114 c 0
107.628335391 20.2566926906 m 1
 107.628335391 20.2420278391 107.622534645 20.2273629876 107.622534645 20.212698136 c 1
 107.627897484 20.237810481 107.628354714 20.2515323847 107.628335391 20.2566926906 c 1
EndSplineSet
EndChar

StartChar: six
Encoding: 54 54 17
Width: 128
Flags: HW
LayerCount: 2
Fore
SplineSet
11.5014706709 114 m 0
 11.5014706709 123.785181387 15.2403877325 153.683536545 60.9361269495 153.683536545 c 0
 66.6800751291 153.683536545 80.8654905159 153.683536545 90.6995131773 143.849513883 c 0
 95.5912730374 138.957754023 97.976465216 132.947966157 97.976465216 126.432461208 c 0
 97.976465216 118.126379234 94.1644693552 104.489712739 74.6358377515 89.1035181419 c 0
 73.2802591223 88.0354864946 71.6401295611 87.5014706709 70 87.5014706709 c 0
 65.8561094026 87.5014706709 62.5014706709 90.8561492075 62.5014706709 95 c 0
 62.5014706709 96.064917584 62.7696127478 98.8522913424 65.3641622485 100.896481858 c 0
 68.1820790698 103.116658748 83.148172795 115.0201 83.148172795 125.85124728 c 0
 83.148172795 128.967204707 81.5871173185 138.640274286 62.2027367188 138.640274286 c 0
 42.5566854994 138.640274286 26.4985293291 132.868983063 26.4985293291 114 c 0
 26.4985293291 106.61986668 28.3881768316 84.4779168945 51.0653543696 84.4779168945 c 0
 51.4250606677 84.4779168945 51.6225550287 84.4890956807 51.6225550287 84.4890956807 c 0
 54.2097369405 84.6185090042 56.7396418708 84.6845298474 59.2102220154 84.6845298474 c 0
 114.116795429 84.6845298474 119.386278655 49.4747854072 119.458448965 48.7771390766 c 0
 122.510205887 19.2767018927 122.510205887 19.2767018927 122.510205887 18.6007403925 c 0
 122.510205887 -3.6978268129 90.670903937 -10.4985293291 79 -10.4985293291 c 0
 69.615228397 -10.4985293291 32.352227319 -9.4167263123 15.6723924737 7.26310853303 c 0
 6.76251990354 16.1729811032 3.41344340631 27.8324841513 3.41344340631 42.4810740763 c 0
 3.41344340631 62.4384570549 11.3020898465 98.1659766417 12.9273050803 100.402986062 c 0
 12.0072225104 104.470307367 11.5014706709 108.994569711 11.5014706709 114 c 0
18.8003873614 42.5626621632 m 0
 18.8003873614 19.9802245363 25.1820054513 6.79355720979 78.8521184099 4.51131209354 c 0
 94.735120558 5.83314973929 101.713770178 10.0724366104 104.665895234 13.0245630678 c 0
 107.370206305 15.7288741382 107.505338196 18.0085072418 107.518266779 18.4480592708 c 2
 104.624531269 46.4207219327 l 1
 101.641902878 55.2208047286 93.491671863 69.6835046936 59.0708445188 69.6835046936 c 0
 56.0439832212 69.6835046936 50.8088830695 69.4607628865 50.7253988934 69.4607628865 c 0
 46.2514447725 69.4607628865 33.641690453 70.4091138772 23.4679117512 80.4912182808 c 1
 20.4072410853 64.6418222128 18.8003873614 52.2455662711 18.8003873614 42.5626621632 c 0
EndSplineSet
EndChar

StartChar: zero
Encoding: 48 48 18
Width: 128
Flags: HW
LayerCount: 2
Fore
SplineSet
96.78125 127.23828125 m 4
 96.78125 142.000976562 90.32421875 145.670898438 81.080078125 145.670898438 c 4
 79.21484375 145.670898438 73.06640625 145.436523438 65.3818359375 142.654296875 c 4
 63.490234375 140.568359375 61.6396484375 138.616210938 59.88671875 136.765625 c 4
 54.2978515625 130.864257812 49.8857421875 125.998046875 47.708984375 121.643554688 c 4
 47.1357421875 120.498046875 28.3128032163 81.0355929515 28.3128032163 44.8590914449 c 0
 28.3128032163 15.9176437844 39.6270335714 13.8145849354 49.4810463796 13.8145849354 c 0
 75.4696038938 13.8145849354 84.4500333673 51.2462703046 93.7543578135 107.373718145 c 0
 97.7813843143 131.666370576 96.78125 122.666015625 96.78125 127.23828125 c 4
49.0042785044 -1.12423209016 m 0
 34.3818629625 -1.12423209016 12.9562770289 5.37674056393 12.9562770289 43.4795606663 c 0
 12.9562770289 78.2188364261 29.6328125 119.0390625 34.291015625 128.356445312 c 4
 37.8994140625 135.572265625 43.455078125 141.23046875 48.9921875 147.075195312 c 4
 56.8779296875 155.400390625 56.8779296875 155.400390625 58.072265625 155.90625 c 4
 59.453125 156.490234375 69.75390625 160.6796875 81.2861328125 160.6796875 c 4
 98.185546875 160.6796875 111.7734375 150.9375 111.7734375 127.250976562 c 4
 111.7734375 121.391601562 112.773256809 130.391746417 108.548317583 104.905204385 c 0
 102.585960772 68.9378568517 97.1158278289 30.3646389786 77.3538149553 10.602626105 c 0
 69.9550867205 3.20389787016 60.3444819103 -1.12423209016 49.0042785044 -1.12423209016 c 0
EndSplineSet
EndChar

StartChar: O
Encoding: 79 79 19
Width: 128
Flags: HW
LayerCount: 2
Fore
SplineSet
96.78125 127.23828125 m 4
 96.78125 142.000976562 90.32421875 145.670898438 81.080078125 145.670898438 c 4
 79.21484375 145.670898438 73.06640625 145.436523438 65.3818359375 142.654296875 c 4
 63.490234375 140.568359375 61.6396484375 138.616210938 59.88671875 136.765625 c 4
 54.2978515625 130.864257812 49.8857421875 125.998046875 47.708984375 121.643554688 c 4
 47.1357421875 120.498046875 28.3128032163 81.0355929515 28.3128032163 44.8590914449 c 0
 28.3128032163 15.9176437844 39.6270335714 13.8145849354 49.4810463796 13.8145849354 c 0
 75.4696038938 13.8145849354 84.4500333673 51.2462703046 93.7543578135 107.373718145 c 0
 97.7813843143 131.666370576 96.78125 122.666015625 96.78125 127.23828125 c 4
49.0042785044 -1.12423209016 m 0
 34.3818629625 -1.12423209016 12.9562770289 5.37674056393 12.9562770289 43.4795606663 c 0
 12.9562770289 78.2188364261 29.6328125 119.0390625 34.291015625 128.356445312 c 4
 37.8994140625 135.572265625 43.455078125 141.23046875 48.9921875 147.075195312 c 4
 56.8779296875 155.400390625 56.8779296875 155.400390625 58.072265625 155.90625 c 4
 59.453125 156.490234375 69.75390625 160.6796875 81.2861328125 160.6796875 c 4
 98.185546875 160.6796875 111.7734375 150.9375 111.7734375 127.250976562 c 4
 111.7734375 121.391601562 112.773256809 130.391746417 108.548317583 104.905204385 c 0
 102.585960772 68.9378568517 97.1158278289 30.3646389786 77.3538149553 10.602626105 c 0
 69.9550867205 3.20389787016 60.3444819103 -1.12423209016 49.0042785044 -1.12423209016 c 0
EndSplineSet
EndChar

StartChar: period
Encoding: 46 46 20
Width: 128
Flags: HW
LayerCount: 2
Fore
SplineSet
62 2 m 0
 58 2 55 5 55 9 c 0
 55 13 58 16 62 16 c 0
 66 16 69 13 69 9 c 0
 69 5 66 2 62 2 c 0
EndSplineSet
EndChar

StartChar: T
Encoding: 84 84 21
Width: 128
Flags: HW
LayerCount: 2
Fore
SplineSet
62 9 m 0
 58 9 55 12 55 16 c 2
 55 146 l 2
 55 150 58 153 62 153 c 0
 66 153 69 150 69 146 c 2
 69 16 l 2
 69 12 66 9 62 9 c 0
75.498046875 148 m 4
 75.498046875 143.856445312 72.1435546875 140.501953125 68 140.501953125 c 6
 49 140.501470671 l 2
 44.8561094026 140.501470671 41.5014706709 143.856149207 41.5014706709 148 c 0
 41.5014706709 152.143890597 44.8561492075 155.498529329 49 155.498529329 c 2
 68 155.498046875 l 6
 72.1435546875 155.498046875 75.498046875 152.143554688 75.498046875 148 c 4
EndSplineSet
EndChar

StartChar: t
Encoding: 116 116 22
Width: 128
Flags: HW
LayerCount: 2
Fore
SplineSet
62 9 m 0
 58 9 55 12 55 16 c 2
 55 146 l 2
 55 150 58 153 62 153 c 0
 66 153 69 150 69 146 c 2
 69 16 l 2
 69 12 66 9 62 9 c 0
75.498046875 98 m 4
 75.498046875 93.8564453125 72.1435546875 90.501953125 68 90.501953125 c 6
 49 90.501953125 l 6
 44.8564453125 90.501953125 41.501953125 93.8564453125 41.501953125 98 c 4
 41.501953125 102.143554688 44.8564453125 105.498046875 49 105.498046875 c 6
 68 105.498046875 l 6
 72.1435546875 105.498046875 75.498046875 102.143554688 75.498046875 98 c 4
EndSplineSet
EndChar

StartChar: f
Encoding: 102 102 23
Width: 128
Flags: HW
LayerCount: 2
Fore
SplineSet
85.498046875 148 m 4
 85.498046875 143.856445312 82.1435546875 140.501953125 78 140.501953125 c 6
 59 140.501953125 l 6
 54.8564453125 140.501953125 51.501953125 143.856445312 51.501953125 148 c 4
 51.501953125 152.143554688 54.8564453125 155.498046875 59 155.498046875 c 6
 78 155.498046875 l 6
 82.1435546875 155.498046875 85.498046875 152.143554688 85.498046875 148 c 4
62 9 m 0
 58 9 55 12 55 16 c 2
 55 146 l 2
 55 150 58 153 62 153 c 0
 66 153 69 150 69 146 c 2
 69 16 l 2
 69 12 66 9 62 9 c 0
75.498046875 98 m 0
 75.498046875 93.8564453125 72.1435546875 90.501953125 68 90.501953125 c 2
 49 90.501953125 l 2
 44.8564453125 90.501953125 41.501953125 93.8564453125 41.501953125 98 c 0
 41.501953125 102.143554688 44.8564453125 105.498046875 49 105.498046875 c 2
 68 105.498046875 l 2
 72.1435546875 105.498046875 75.498046875 102.143554688 75.498046875 98 c 0
EndSplineSet
EndChar

StartChar: r
Encoding: 114 114 24
Width: 128
Flags: HW
LayerCount: 2
Fore
SplineSet
85.498046875 88 m 4
 85.498046875 83.8564453125 82.1435546875 80.501953125 78 80.501953125 c 6
 59 80.501953125 l 6
 54.8564453125 80.501953125 51.501953125 83.8564453125 51.501953125 88 c 4
 51.501953125 92.1435546875 54.8564453125 95.498046875 59 95.498046875 c 6
 78 95.498046875 l 6
 82.1435546875 95.498046875 85.498046875 92.1435546875 85.498046875 88 c 4
62 9 m 0
 58 9 55 12 55 16 c 2
 55 86 l 2
 55 90 58 93 62 93 c 0
 66 93 69 90 69 86 c 2
 69 16 l 2
 69 12 66 9 62 9 c 0
EndSplineSet
EndChar

StartChar: c
Encoding: 99 99 25
Width: 128
Flags: HW
LayerCount: 2
Fore
SplineSet
114.625 26.498046875 m 5
 133 26.4985293291 l 2
 136.999986908 26.4986343527 140.498529329 23.1438507925 140.498529329 19 c 0
 140.498529329 14.8561094026 137.143850793 11.5014706709 133 11.5014706709 c 2
 12 11.5014706709 l 2
 7.85610940262 11.5014706709 4.50147067095 14.8561492075 4.50147067095 19 c 0
 4.50147067095 20.0510564472 4.76682069806 22.9112660165 7.44977506403 24.9629371155 c 2
 7.44977506403 24.9629371155 25.6240234375 46.509765625 50.4423828125 71.328125 c 0
 68.5126953125 89.3984375 83.6953125 109.108398438 85.6103515625 120.275390625 c 0
 86.22265625 123.84765625 89.32421875 126.498046875 93 126.498046875 c 0
 97.1435546875 126.498046875 100.498046875 123.143554688 100.498046875 119 c 0
 100.498046875 118.721679688 100.232421875 109.392578125 89.435546875 93.486328125 c 1
 77.91796875 79.2998046875 52 46 33.2720684023 26.4985293291 c 1
 114.625 26.498046875 l 5
EndSplineSet
EndChar

StartChar: C
Encoding: 67 67 26
Width: 128
Flags: HW
LayerCount: 2
Fore
SplineSet
106.166015625 145.625976562 m 4
 84 107 10.2058491293 27.0705232817 7.44977506403 24.9629371155 c 0
 4.76682069806 22.9112660165 4.50147067095 20.0510564472 4.50147067095 19 c 0
 4.50147067095 14.8561492075 8.00000396576 11.5014388533 12 11.5014706709 c 2
 12 11.5014706709 72.6522882589 11.5014706709 72.65234375 11.501953125 c 1
 115 11.5014706709 l 2
 122.999994319 11.5013795294 124.189408299 21.7156349961 124.189453125 25.41796875 c 1
 103 26 l 1
 33.2720684023 26.4985293291 l 1
 111.121111084 91.3859791997 121.12109375 136.0234375 121.12109375 145.345703125 c 4
 121.12109375 152.182617188 109.061523438 150.670898438 106.166015625 145.625976562 c 4
EndSplineSet
EndChar

StartChar: G
Encoding: 71 71 27
Width: 128
Flags: HW
LayerCount: 2
Fore
SplineSet
106.166015625 145.625976562 m 0
 84 107 10.2058491293 27.0705232817 7.44977506403 24.9629371155 c 0
 4.76682069806 22.9112660165 4.50147067095 20.0510564472 4.50147067095 19 c 0
 4.50147067095 14.8561492075 8.00000396576 11.5014388533 12 11.5014706709 c 2
 12 11.5014706709 72.6522882589 11.5014706709 72.65234375 11.501953125 c 1
 115 11.5014706709 l 2
 122.999994319 11.5013795294 124.189408299 21.7156349961 124.189453125 25.41796875 c 1
 103 26 l 1
 33.2720684023 26.4985293291 l 1
 111.121111084 91.3859791997 121.12109375 136.0234375 121.12109375 145.345703125 c 0
 121.12109375 152.182617188 109.061523438 150.670898438 106.166015625 145.625976562 c 0
113 42.4985293291 m 4
 108.856149207 42.4985293291 105.501470671 39.1438905974 105.501470671 35 c 2
 105.501470671 19 l 2
 105.501470671 14.8561492075 108.856109403 11.5014706709 113 11.5014706709 c 0
 117.143850793 11.5014706709 120.498529329 14.8561094026 120.498529329 19 c 2
 120.498529329 35 l 2
 120.498529329 39.1438507925 117.143890597 42.4985293291 113 42.4985293291 c 4
EndSplineSet
EndChar

StartChar: E
Encoding: 69 69 28
Width: 128
Flags: HW
LayerCount: 2
Fore
SplineSet
106.166015625 145.625976562 m 0
 84 107 10.2058491293 27.0705232817 7.44977506403 24.9629371155 c 0
 4.76682069806 22.9112660165 4.50147067095 20.0510564472 4.50147067095 19 c 0
 4.50147067095 14.8561492075 8.00000396576 11.5014388533 12 11.5014706709 c 2
 12 11.5014706709 72.6522882589 11.5014706709 72.65234375 11.501953125 c 1
 115 11.5014706709 l 2
 122.999994319 11.5013795294 124.189408299 21.7156349961 124.189453125 25.41796875 c 1
 103 26 l 1
 33.2720684023 26.4985293291 l 1
 111.121111084 91.3859791997 121.12109375 136.0234375 121.12109375 145.345703125 c 0
 121.12109375 152.182617188 109.061523438 150.670898438 106.166015625 145.625976562 c 0
25 20.5014706709 m 0
 25.2694837021 20.5014706709 52.7705078125 35.501953125 81.0400390625 37.5205078125 c 4
 84.95703125 37.80078125 88 41.0576171875 88 45 c 4
 88 49.1435546875 84.6455078125 52.498046875 80.501953125 52.498046875 c 4
 80.232421875 52.498046875 52.7305162979 37.4985293291 24.4617790047 35.4793338081 c 0
 20.5446849492 35.1995413756 17.5014706709 31.942198322 17.5014706709 28 c 0
 17.5014706709 23.8561492075 20.8561094026 20.5014706709 25 20.5014706709 c 0
EndSplineSet
EndChar

StartChar: F
Encoding: 70 70 29
Width: 128
Flags: HW
LayerCount: 2
Fore
SplineSet
106.166015625 145.625976562 m 0
 84 107 10.2060546875 37.0703125 7.4501953125 34.962890625 c 0
 4.7666015625 32.9111328125 4.501953125 30.05078125 4.501953125 29 c 0
 4.501953125 24.8564453125 8.35199874275 22.9949650032 12 21.501953125 c 2
 23 17 l 1
 94 -2.498046875 l 2
 101.314949324 -4.50688102712 103.189453125 7.7158203125 103.189453125 11.41796875 c 1
 103.189453125 11.41796875 l 1
 33.2724609375 36.498046875 l 1
 111.12109375 101.385742188 121.12109375 136.0234375 121.12109375 145.345703125 c 0
 121.12109375 152.182617188 109.061523438 150.670898438 106.166015625 145.625976562 c 0
29.5380859375 23.0224609375 m 4
 29.8076171875 23.0224609375 52.770808027 35.4977530613 81.0400390625 37.5205078125 c 0
 84.95703125 37.80078125 88 41.0576171875 88 45 c 0
 88 49.1435546875 84.6455078125 52.498046875 80.501953125 52.498046875 c 0
 80.232421875 52.498046875 57.2685546875 40.0185546875 29 38 c 4
 25.0830078125 37.7197265625 22.0400390625 34.462890625 22.0400390625 30.5205078125 c 4
 22.0400390625 26.376953125 25.39453125 23.0224609375 29.5380859375 23.0224609375 c 4
EndSplineSet
EndChar

StartChar: h
Encoding: 104 104 30
Width: 128
Flags: HW
LayerCount: 2
Fore
SplineSet
26.498046875 124 m 4
 27 114 -1.6826171875 14 21 14 c 0
 21.3525390625 14 21.5458984375 14.0107421875 21.5458984375 14.0107421875 c 2
 24.1363183869 14.061716462 67.5263671875 86 70 86 c 0
 84.228515625 86 108.753409949 72.9947420433 119.146484375 40.27734375 c 0
 119.634765625 38.740234375 122.511507167 18.9087336483 122.511507167 18.5900766814 c 0
 122.511507167 -3.66725592694 90.7207921246 -10.4985293291 79 -10.4985293291 c 0
 74.8561094026 -10.4985293291 71.5014706709 -7.14385079251 71.5014706709 -3 c 0
 71.5014706709 0.921500987842 74.5133822204 4.16782995647 78.4054882905 4.47510148832 c 0
 103.160219926 6.42942240692 107.533788865 15.4573742383 107.532412213 18.3112134155 c 0
 107.369966482 19.8816117565 106.080117459 32.1290462405 104.625 36.4208984375 c 0
 101.5703125 45.4306640625 104.118164062 71.0068359375 70.005859375 71.0068359375 c 0
 66.9921875 71.0068359375 20.8779296875 -1.0087890625 20.7939453125 -1.0087890625 c 0
 5.109375 -1.0087890625 9.9990234375 83 11.501953125 124 c 4
 11.8603515625 133.778320312 26.1962890625 130.01171875 26.498046875 124 c 4
107.531347325 18.3526373858 m 1
 107.531347325 18.4444685365 107.520360505 18.4923738714 107.520360505 18.4923738714 c 1
 107.531347325 18.3526373858 l 1
EndSplineSet
EndChar

StartChar: s
Encoding: 115 115 31
Width: 128
Flags: HW
LayerCount: 2
Fore
SplineSet
26.498046875 84 m 4
 27 74 28.314453125 54.4736328125 50.9970703125 54.4736328125 c 4
 51.349609375 54.4736328125 51.54296875 54.484375 51.54296875 54.484375 c 6
 54.1318359375 54.6142578125 56.6640625 54.6806640625 59.1376953125 54.6806640625 c 4
 73.3662109375 54.6806640625 108.760742188 72.9970703125 119.146484375 40.27734375 c 4
 119.634765625 38.740234375 122.511507167 18.9087336483 122.511507167 18.5900766814 c 0
 122.511507167 -3.66725592694 90.7207921246 -10.4985293291 79 -10.4985293291 c 0
 74.8561094026 -10.4985293291 71.5014706709 -7.14385079251 71.5014706709 -3 c 0
 71.5014706709 0.921500987842 74.5133822204 4.16782995647 78.4054882905 4.47510148832 c 0
 103.160219926 6.42942240692 107.533788865 15.4573742383 107.532412213 18.3112134155 c 0
 107.369966482 19.8816117565 105.090820312 31.9130859375 104.625 36.4208984375 c 4
 101.5703125 45.4306640625 93.255859375 39.6875 59.1435546875 39.6875 c 4
 56.1298828125 39.6875 50.875 39.46484375 50.791015625 39.46484375 c 4
 35.1064453125 39.46484375 10 43 11.501953125 84 c 4
 11.8603515625 93.7783203125 26.1962890625 90.01171875 26.498046875 84 c 4
107.531347325 18.3526373858 m 1
 107.531347325 18.4444685365 107.520360505 18.4923738714 107.520360505 18.4923738714 c 1
 107.531347325 18.3526373858 l 1
EndSplineSet
EndChar

StartChar: u
Encoding: 117 117 32
Width: 128
Flags: HW
LayerCount: 2
Fore
SplineSet
26.498046875 84 m 0
 27 74 8.314453125 24.4736328125 30.9970703125 24.4736328125 c 0
 31.349609375 24.4736328125 31.54296875 24.484375 31.54296875 24.484375 c 2
 34.1318359375 24.6142578125 36.6640625 24.6806640625 39.1376953125 24.6806640625 c 0
 53.3662109375 24.6806640625 68.7529296875 112.995117188 79.146484375 80.27734375 c 0
 79.634765625 78.740234375 82 44.3193359375 82 44 c 0
 82 21.7431640625 109.647460938 26.8828125 114 16 c 4
 116 11 86.5009765625 13.3544921875 86.5009765625 17.498046875 c 0
 86.5009765625 21.419921875 79.177734375 16.73046875 76 19 c 0
 69 24 67.826171875 25.47265625 67.5322265625 28.3115234375 c 0
 67.3701171875 29.8818359375 65.0908203125 51.9130859375 64.625 56.4208984375 c 0
 61.5703125 65.4306640625 73.255859375 9.6875 39.1435546875 9.6875 c 0
 36.1298828125 9.6875 30.875 9.46484375 30.791015625 9.46484375 c 0
 15.1064453125 9.46484375 10 43 11.501953125 84 c 0
 11.8603515625 93.7783203125 26.1962890625 90.01171875 26.498046875 84 c 0
67.53125 28.3525390625 m 1
 67.53125 28.4443359375 67.5205078125 28.4921875 67.5205078125 28.4921875 c 1
 67.53125 28.3525390625 l 1
EndSplineSet
EndChar

StartChar: v
Encoding: 118 118 33
Width: 128
Flags: HW
LayerCount: 2
Fore
SplineSet
26.498046875 84 m 0
 27 74 28.314453125 24.4736328125 50.9970703125 24.4736328125 c 0
 51.349609375 24.4736328125 51.54296875 24.484375 51.54296875 24.484375 c 2
 54.1318359375 24.6142578125 46.6640625 24.6806640625 49.1376953125 24.6806640625 c 0
 63.3662109375 24.6806640625 68.7529296875 112.995117188 79.146484375 80.27734375 c 0
 79.634765625 78.740234375 82 44.3193359375 82 44 c 0
 82 21.7431640625 62.6474609375 7.8828125 67 -3 c 4
 69 -8 86.5009765625 13.3544921875 86.5009765625 17.498046875 c 0
 86.5009765625 21.419921875 79.177734375 16.73046875 76 19 c 0
 69 24 67.826171875 25.47265625 67.5322265625 28.3115234375 c 0
 67.3701171875 29.8818359375 65.0908203125 51.9130859375 64.625 56.4208984375 c 0
 61.5703125 65.4306640625 83.255859375 9.6875 49.1435546875 9.6875 c 0
 46.1298828125 9.6875 50.875 9.46484375 50.791015625 9.46484375 c 0
 35.1064453125 9.46484375 10 43 11.501953125 84 c 0
 11.8603515625 93.7783203125 26.1962890625 90.01171875 26.498046875 84 c 0
67.53125 28.3525390625 m 1
 67.53125 28.4443359375 67.5205078125 28.4921875 67.5205078125 28.4921875 c 1
 67.53125 28.3525390625 l 1
EndSplineSet
EndChar

StartChar: y
Encoding: 121 121 34
Width: 128
Flags: HW
LayerCount: 2
Fore
SplineSet
46.498046875 84 m 4
 47 74 48.314453125 24.4736328125 70.9970703125 24.4736328125 c 4
 71.349609375 24.4736328125 71.54296875 24.484375 71.54296875 24.484375 c 6
 74.1318359375 24.6142578125 66.6640625 24.6806640625 69.1376953125 24.6806640625 c 4
 83.3662109375 24.6806640625 88.7529296875 112.995117188 99.146484375 80.27734375 c 4
 99.634765625 78.740234375 102 44.3193359375 102 44 c 4
 102 21.7431640625 55.6474609375 -17.1171875 60 -28 c 4
 62 -33 106.500976562 13.3544921875 106.500976562 17.498046875 c 4
 106.500976562 21.419921875 99.177734375 16.73046875 96 19 c 4
 89 24 87.826171875 25.47265625 87.5322265625 28.3115234375 c 4
 87.3701171875 29.8818359375 85.0908203125 51.9130859375 84.625 56.4208984375 c 4
 81.5703125 65.4306640625 103.255859375 9.6875 69.1435546875 9.6875 c 4
 66.1298828125 9.6875 70.875 9.46484375 70.791015625 9.46484375 c 4
 55.1064453125 9.46484375 30 43 31.501953125 84 c 4
 31.8603515625 93.7783203125 46.1962890625 90.01171875 46.498046875 84 c 4
87.53125 28.3525390625 m 5
 87.53125 28.4443359375 87.5205078125 28.4921875 87.5205078125 28.4921875 c 5
 87.53125 28.3525390625 l 5
EndSplineSet
EndChar

StartChar: w
Encoding: 119 119 35
Width: 128
Flags: HW
LayerCount: 2
Fore
SplineSet
26.498046875 84 m 0
 27 74 8.314453125 24.4736328125 30.9970703125 24.4736328125 c 0
 31.349609375 24.4736328125 31.54296875 24.484375 31.54296875 24.484375 c 2
 34.1318359375 24.6142578125 36.6640625 24.6806640625 39.1376953125 24.6806640625 c 0
 53.3662109375 24.6806640625 68.7529296875 112.995117188 79.146484375 80.27734375 c 0
 79.634765625 78.740234375 82 44.3193359375 82 44 c 0
 82 21.7431640625 121.647460938 62.8828125 126 52 c 4
 128 47 86.5009765625 13.3544921875 86.5009765625 17.498046875 c 0
 86.5009765625 21.419921875 79.177734375 16.73046875 76 19 c 0
 69 24 67.826171875 25.47265625 67.5322265625 28.3115234375 c 0
 67.3701171875 29.8818359375 65.0908203125 51.9130859375 64.625 56.4208984375 c 0
 61.5703125 65.4306640625 73.255859375 9.6875 39.1435546875 9.6875 c 0
 36.1298828125 9.6875 30.875 9.46484375 30.791015625 9.46484375 c 0
 15.1064453125 9.46484375 10 43 11.501953125 84 c 0
 11.8603515625 93.7783203125 26.1962890625 90.01171875 26.498046875 84 c 0
67.53125 28.3525390625 m 1
 67.53125 28.4443359375 67.5205078125 28.4921875 67.5205078125 28.4921875 c 1
 67.53125 28.3525390625 l 1
EndSplineSet
EndChar

StartChar: n
Encoding: 110 110 36
Width: 128
Flags: HW
LayerCount: 2
Fore
SplineSet
26.498046875 84 m 0
 27 74 -1.6826171875 14 21 14 c 0
 21.3525390625 14 21.5458984375 14.0107421875 21.5458984375 14.0107421875 c 2
 24.1363183869 14.061716462 67.5263671875 86 70 86 c 4
 84.228515625 86 108.753409949 72.9947420433 119.146484375 40.27734375 c 0
 119.634765625 38.740234375 122.511507167 18.9087336483 122.511507167 18.5900766814 c 0
 122.511507167 -3.66725592694 90.7207921246 -10.4985293291 79 -10.4985293291 c 0
 74.8561094026 -10.4985293291 71.5014706709 -7.14385079251 71.5014706709 -3 c 0
 71.5014706709 0.921500987842 74.5133822204 4.16782995647 78.4054882905 4.47510148832 c 0
 103.160219926 6.42942240692 107.533788865 15.4573742383 107.532412213 18.3112134155 c 0
 107.369966482 19.8816117565 106.080117459 32.1290462405 104.625 36.4208984375 c 0
 101.5703125 45.4306640625 104.118164062 71.0068359375 70.005859375 71.0068359375 c 4
 66.9921875 71.0068359375 20.8779296875 -1.0087890625 20.7939453125 -1.0087890625 c 0
 5.109375 -1.0087890625 9.99920775937 43.0000290298 11.501953125 84 c 0
 11.8603515625 93.7783203125 26.1962867794 90.0117186354 26.498046875 84 c 0
107.531347325 18.3526373858 m 1
 107.531347325 18.4444685365 107.520360505 18.4923738714 107.520360505 18.4923738714 c 1
 107.531347325 18.3526373858 l 1
EndSplineSet
EndChar

StartChar: m
Encoding: 109 109 37
Width: 128
Flags: HW
LayerCount: 2
Fore
SplineSet
26.498046875 84 m 0
 27 74 -1.6826171875 14 21 14 c 0
 21.3525390625 14 21.5458984375 14.0107421875 21.5458984375 14.0107421875 c 2
 24.1363183869 14.061716462 67.5263671875 86 70 86 c 0
 84.228515625 86 99 81 90 44 c 4
 89.619140625 42.4326171875 125 38.318359375 125 38 c 0
 125 15.7421875 90.7207921246 -10.4985293291 79 -10.4985293291 c 0
 74.8561094026 -10.4985293291 71.5014706709 -7.14385079251 71.5014706709 -3 c 0
 71.5014706709 0.921500987842 74.5133822204 4.16782995647 78.4054882905 4.47510148832 c 0
 103.160219926 6.42942240692 110.314453125 34.8828125 110.020507812 37.720703125 c 0
 109.858398438 39.2919921875 76.9336715979 25.8515888929 75.478515625 30.1435546875 c 0
 72.423828125 39.1533203125 104.118164062 71.0068359375 70.005859375 71.0068359375 c 0
 66.9921875 71.0068359375 20.8779296875 -1.0087890625 20.7939453125 -1.0087890625 c 0
 5.109375 -1.0087890625 9.99920775937 43.0000290298 11.501953125 84 c 0
 11.8603515625 93.7783203125 26.1962867794 90.0117186354 26.498046875 84 c 0
110.01953125 37.7626953125 m 1
 110.01953125 37.8544921875 110.008789062 37.90234375 110.008789062 37.90234375 c 1
 110.01953125 37.7626953125 l 1
EndSplineSet
EndChar

StartChar: g
Encoding: 103 103 38
Width: 128
Flags: HW
LayerCount: 2
Fore
SplineSet
94.625 26.498046875 m 1
 113 26.498046875 l 2
 117 26.4990234375 120.498046875 23.1435546875 120.498046875 19 c 0
 120.498046875 14.8564453125 117.143554688 11.501953125 113 11.501953125 c 2
 12 11.5014706709 l 2
 7.85610940262 11.5014706709 4.50147067095 14.8561492075 4.50147067095 19 c 0
 4.50147067095 20.0510564472 4.76682069806 22.9112660165 7.44977506403 24.9629371155 c 2
 7.44977506403 24.9629371155 25.6240234375 46.509765625 50.4423828125 71.328125 c 0
 68.5126953125 89.3984375 83.6953125 109.108398438 85.6103515625 120.275390625 c 0
 86.22265625 123.84765625 89.32421875 126.498046875 93 126.498046875 c 0
 97.1435546875 126.498046875 100.498046875 123.143554688 100.498046875 119 c 0
 100.498046875 118.721679688 100.232421875 109.392578125 89.435546875 93.486328125 c 1
 77.91796875 79.2998046875 52 46 33.2720684023 26.4985293291 c 1
 94.625 26.498046875 l 1
70 -27.4985293291 m 0
 65.8561094026 -27.4985293291 62.5014706709 -24.1438507925 62.5014706709 -20 c 0
 62.5014706709 -15.9497798125 65.7100695588 -12.6380640302 69.7524065768 -12.5055283903 c 0
 86.4126830446 -11.9592898176 109.382644213 -8.33979716617 109.382644213 7.46809382471 c 0
 109.382644213 11.1118501987 108.179335953 13.877703226 108.179335953 13.877703226 c 2
 107.727425765 14.8662567644 107.501470671 15.9331283822 107.501470671 17 c 0
 107.501470671 21.1438905974 105.856445312 40 110 40 c 4
 119.110351562 40 124.46259573 9.51657364285 124.46259573 7.20013955199 c 0
 124.46259573 -21.8432153777 87.5238668817 -27.4985293291 70 -27.4985293291 c 0
EndSplineSet
EndChar

StartChar: A
Encoding: 65 65 39
Width: 128
Flags: HW
LayerCount: 2
Fore
SplineSet
100 40 m 0
 100 65 91 94 84 104 c 0
 83 105 82 106 82 107 c 1
 70 88 52 58 33 26 c 1
 99 33 l 2
 99 35 100 37 100 40 c 0
4 23 m 0
 4 24 4 28 7 31 c 2
 7 31 25 60 50 92 c 0
 68 116 84 141 86 156 c 0
 87 161 89 164 93 164 c 0
 97 164 101 159 101 154 c 2
 101 154 101 141 90 120 c 1
 102 119 115 73 115 39 c 0
 115 37 115 35 115 33 c 1
 134 33 l 2
 138 33 141 28 141 23 c 0
 141 18 138 13 134 13 c 2
 12 13 l 2
 8 13 4 18 4 23 c 0
EndSplineSet
EndChar

StartChar: question
Encoding: 63 63 40
Width: 128
Flags: HW
LayerCount: 2
Fore
SplineSet
62 -1 m 0
 58 -1 55 2 55 6 c 0
 55 10 58 13 62 13 c 0
 66 13 69 10 69 6 c 0
 69 2 66 -1 62 -1 c 0
62 9 m 0
 58 9 55 12 55 16 c 2
 55 146 l 2
 55 150 58 153 62 153 c 0
 66 153 69 150 69 146 c 2
 69 16 l 2
 69 12 66 9 62 9 c 0
69 146 m 4
 69 142 66 139 62 139 c 6
 43 139 l 6
 39 139 36 142 36 146 c 4
 36 150 39 153 43 153 c 6
 62 153 l 6
 66 153 69 150 69 146 c 4
EndSplineSet
EndChar

StartChar: D
Encoding: 68 68 43
Width: 128
Flags: HW
LayerCount: 2
Fore
SplineSet
100 40 m 0
 100 65 103 128 96 138 c 4
 95 139 94 140 94 141 c 5
 82 122 52 58 33 26 c 1
 99 33 l 2
 99 35 100 37 100 40 c 0
4 23 m 0
 4 24 4 28 7 31 c 2
 7 31 25.6352713949 59.5136951932 50 92 c 0
 68 116 85 141 87 156 c 4
 88 161 90 164 94 164 c 4
 98 164 102 159 102 154 c 6
 102 154 113 175 102 154 c 5
 114 153 115 73 115 39 c 0
 115 37 115 35 115 33 c 1
 134 33 l 2
 138 33 141 28 141 23 c 0
 141 18 138 13 134 13 c 2
 12 13 l 2
 8 13 4 18 4 23 c 0
EndSplineSet
EndChar

StartChar: H
Encoding: 72 72 44
Width: 128
Flags: HW
LayerCount: 2
Fore
SplineSet
26.498046875 144 m 0
 27 134 -0.4765625 15.009765625 22.205078125 15.009765625 c 4
 22.55859375 15.009765625 42.4052734375 70.8046875 42.4052734375 70.8046875 c 2
 43.1210203504 72.7816507158 47.5263671875 71 50 71 c 0
 64.2275390625 71 112.612920032 160.7193019 123 128 c 0
 123.48828125 126.461914062 122.511507167 18.9087336483 122.511507167 18.5900766814 c 0
 122.511507167 -3.66725592694 90.7207921246 -10.4985293291 79 -10.4985293291 c 0
 74.8561094026 -10.4985293291 71.5014706709 -7.14385079251 71.5014706709 -3 c 0
 71.5014706709 0.921500987842 74.5133822204 4.16782995647 78.4054882905 4.47510148832 c 0
 103.160219926 6.42942240692 107.826053296 15.4725209597 107.532412213 18.3112134155 c 0
 107.369966482 19.8816117565 109.933215832 119.851561048 108.478515625 124.143554688 c 0
 105.424804688 133.153320312 84.1181640625 56.0078125 50.005859375 56.0078125 c 0
 46.9921875 56.0078125 22.0830078125 0 22 0 c 4
 6.314453125 0 10 72 11.501953125 144 c 0
 11.7060315878 153.783027896 26.1962867794 150.011718635 26.498046875 144 c 0
107.531347325 18.3526373858 m 1
 107.531347325 18.4444685365 107.520360505 18.4923738714 107.520360505 18.4923738714 c 1
 107.531347325 18.3526373858 l 1
EndSplineSet
EndChar

StartChar: M
Encoding: 77 77 45
Width: 128
Flags: HW
LayerCount: 2
Fore
SplineSet
26.498046875 144 m 0
 27 134 -0.4765625 15.009765625 22.205078125 15.009765625 c 0
 22.55859375 15.009765625 50 127 50 127 c 2
 50.503634544 129.02922501 66.5263671875 55 69 55 c 0
 83.2275390625 55 112.612920032 160.7193019 123 128 c 0
 123.48828125 126.461914062 122.511507167 18.9087336483 122.511507167 18.5900766814 c 0
 122.511507167 -3.66725592694 90.7207921246 -10.4985293291 79 -10.4985293291 c 0
 74.8561094026 -10.4985293291 71.5014706709 -7.14385079251 71.5014706709 -3 c 0
 71.5014706709 0.921500987842 74.5133822204 4.16782995647 78.4054882905 4.47510148832 c 0
 103.160219926 6.42942240692 107.826053296 15.4725209597 107.532412213 18.3112134155 c 0
 107.369966482 19.8816117565 109.933215832 119.851561048 108.478515625 124.143554688 c 0
 105.424804688 133.153320312 95 -2 51 68 c 4
 49.3962095815 70.5514847567 22.0830078125 0 22 0 c 0
 6.314453125 0 10 72 11.501953125 144 c 0
 11.7060315878 153.783027896 26.1962867794 150.011718635 26.498046875 144 c 0
107.531347325 18.3526373858 m 1
 107.531347325 18.4444685365 107.520360505 18.4923738714 107.520360505 18.4923738714 c 1
 107.531347325 18.3526373858 l 1
EndSplineSet
EndChar

StartChar: W
Encoding: 87 87 46
Width: 128
Flags: HW
LayerCount: 2
Fore
SplineSet
26.498046875 144 m 0
 27 134 -0.4765625 15.009765625 22.205078125 15.009765625 c 0
 22.55859375 15.009765625 50 127 50 127 c 2
 50.503634544 129.02922501 66.5263671875 55 69 55 c 0
 83.2275390625 55 112.612920032 160.7193019 123 128 c 0
 123.48828125 126.461914062 122.51171875 58.9091796875 122.51171875 58.58984375 c 4
 122.51171875 36.3330078125 90.720703125 29.501953125 79 29.501953125 c 4
 74.8564453125 29.501953125 71.501953125 32.8564453125 71.501953125 37 c 4
 71.501953125 40.921875 74.513671875 44.16796875 78.4052734375 44.4755859375 c 4
 103.16015625 46.4296875 107.826171875 55.47265625 107.532226562 58.3115234375 c 4
 107.370117188 59.8818359375 109.933215832 119.851561048 108.478515625 124.143554688 c 0
 105.424804688 133.153320312 95 -2 51 68 c 0
 49.3962095815 70.5514847567 22.0830078125 0 22 0 c 0
 6.314453125 0 10 72 11.501953125 144 c 0
 11.7060315878 153.783027896 26.1962867794 150.011718635 26.498046875 144 c 0
107.53125 58.3525390625 m 5
 107.53125 58.4443359375 107.520507812 58.4921875 107.520507812 58.4921875 c 5
 107.53125 58.3525390625 l 5
EndSplineSet
EndChar

StartChar: Y
Encoding: 89 89 47
Width: 128
Flags: HW
LayerCount: 2
Fore
SplineSet
26.498046875 144 m 0
 27 134 -0.4765625 15.009765625 22.205078125 15.009765625 c 0
 22.55859375 15.009765625 11 100 11 100 c 2
 11.50390625 102.029296875 68.284156634 52.6322104049 69 55 c 4
 82 98 112.612920032 160.7193019 123 128 c 0
 123.48828125 126.461914062 122.511507167 18.9087336483 122.511507167 18.5900766814 c 0
 122.511507167 -3.66725592694 90.7207921246 -10.4985293291 79 -10.4985293291 c 0
 74.8561094026 -10.4985293291 71.5014706709 -7.14385079251 71.5014706709 -3 c 0
 71.5014706709 0.921500987842 74.5133822204 4.16782995647 78.4054882905 4.47510148832 c 0
 103.160219926 6.42942240692 107.826053296 15.4725209597 107.532412213 18.3112134155 c 0
 107.369966482 19.8816117565 109.933215832 119.851561048 108.478515625 124.143554688 c 0
 105.424804688 133.153320312 56 -29 12 41 c 0
 10.396484375 43.5517578125 22.0830078125 0 22 0 c 0
 6.314453125 0 10 72 11.501953125 144 c 0
 11.7060315878 153.783027896 26.1962867794 150.011718635 26.498046875 144 c 0
107.531347325 18.3526373858 m 1
 107.531347325 18.4444685365 107.520360505 18.4923738714 107.520360505 18.4923738714 c 1
 107.531347325 18.3526373858 l 1
EndSplineSet
EndChar

StartChar: L
Encoding: 76 76 48
Width: 128
Flags: HW
LayerCount: 2
Fore
SplineSet
85 16 m 4
 85 12 82 9 78 9 c 6
 59 9 l 6
 55 9 52 12 52 16 c 4
 52 20 55 23 59 23 c 6
 78 23 l 6
 82 23 85 20 85 16 c 4
62 9 m 0
 58 9 55 12 55 16 c 2
 55 146 l 2
 55 150 58 153 62 153 c 0
 66 153 69 150 69 146 c 2
 69 16 l 2
 69 12 66 9 62 9 c 0
EndSplineSet
EndChar

StartChar: N
Encoding: 78 78 49
Width: 128
Flags: HW
LayerCount: 2
Fore
SplineSet
26.498046875 144 m 0
 27 134 -0.4765625 15.009765625 22.205078125 15.009765625 c 4
 22.55859375 15.009765625 42.4052734375 70.8046875 42.4052734375 70.8046875 c 2
 43.1210203504 72.7816507158 48.7828310243 68.8465471968 50 71 c 4
 63 94 112.612920032 160.7193019 123 128 c 0
 123.48828125 126.461914062 122.511507167 18.9087336483 122.511507167 18.5900766814 c 0
 122.511507167 -3.66725592694 90.7207921246 -10.4985293291 79 -10.4985293291 c 0
 74.8561094026 -10.4985293291 71.5014706709 -7.14385079251 71.5014706709 -3 c 0
 71.5014706709 0.921500987842 74.5133822204 4.16782995647 78.4054882905 4.47510148832 c 0
 103.160219926 6.42942240692 107.826053296 15.4725209597 107.532412213 18.3112134155 c 0
 107.369966482 19.8816117565 109.933215832 119.851561048 108.478515625 124.143554688 c 0
 105.424804688 133.153320312 73 80 50.005859375 56.0078125 c 4
 47.9206067033 53.8320506874 22.0830078125 0 22 0 c 4
 6.314453125 0 10 72 11.501953125 144 c 0
 11.7060315878 153.783027896 26.1962867794 150.011718635 26.498046875 144 c 0
107.531347325 18.3526373858 m 1
 107.531347325 18.4444685365 107.520360505 18.4923738714 107.520360505 18.4923738714 c 1
 107.531347325 18.3526373858 l 1
EndSplineSet
EndChar

StartChar: P
Encoding: 80 80 50
Width: 128
Flags: HW
LayerCount: 2
Fore
SplineSet
26.498046875 144 m 0
 27 134 -0.4765625 15.009765625 22.205078125 15.009765625 c 0
 22.55859375 15.009765625 42.4052734375 70.8046875 42.4052734375 70.8046875 c 2
 43.1210203504 72.7816507158 48.7828310243 68.8465471968 50 71 c 0
 63 94 112.612920032 160.7193019 123 128 c 0
 123.48828125 126.461914062 119.106445312 82.43359375 119.106445312 82.115234375 c 4
 119.106445312 59.857421875 87.3154296875 53.0263671875 75.5947265625 53.0263671875 c 4
 71.4501953125 53.0263671875 68.095703125 56.380859375 68.095703125 60.5244140625 c 4
 68.095703125 64.4462890625 71.107421875 67.6923828125 75 68 c 4
 99.7548828125 69.9541015625 104.420898438 78.9970703125 104.126953125 81.8359375 c 4
 103.96484375 83.40625 109.933215832 119.851561048 108.478515625 124.143554688 c 0
 105.424804688 133.153320312 73 80 50.005859375 56.0078125 c 0
 47.9206067033 53.8320506874 22.0830078125 0 22 0 c 0
 6.314453125 0 10 72 11.501953125 144 c 0
 11.7060315878 153.783027896 26.1962867794 150.011718635 26.498046875 144 c 0
104.125976562 81.8779296875 m 5
 104.125976562 81.9697265625 104.115234375 82.017578125 104.115234375 82.017578125 c 5
 104.125976562 81.8779296875 l 5
EndSplineSet
EndChar

StartChar: Q
Encoding: 81 81 51
Width: 128
Flags: HW
LayerCount: 2
Fore
SplineSet
49.0042785044 -1.12423209016 m 0
 34.3818629625 -1.12423209016 12.9562770289 5.37674056393 12.9562770289 43.4795606663 c 0
 12.9562770289 78.2188364261 29.6328125 119.0390625 34.291015625 128.356445312 c 0
 37.8994140625 135.572265625 43.455078125 141.23046875 48.9921875 147.075195312 c 0
 56.8779296875 155.400390625 56.8779296875 155.400390625 58.072265625 155.90625 c 0
 59.453125 156.490234375 69.75390625 160.6796875 81.2861328125 160.6796875 c 0
 98.185546875 160.6796875 111.7734375 150.9375 111.7734375 127.250976562 c 0
 111.7734375 121.391601562 112.773256809 130.391746417 108.548317583 104.905204385 c 0
 102.585960772 68.9378568517 97.1158278289 30.3646389786 77.3538149553 10.602626105 c 0
 69.9550867205 3.20389787016 60.3444819103 -1.12423209016 49.0042785044 -1.12423209016 c 0
96.78125 127.23828125 m 0
 96.78125 142.000976562 90.32421875 145.670898438 81.080078125 145.670898438 c 0
 79.21484375 145.670898438 73.06640625 145.436523438 65.3818359375 142.654296875 c 0
 63.490234375 140.568359375 61.6396484375 138.616210938 59.88671875 136.765625 c 0
 54.2978515625 130.864257812 49.8857421875 125.998046875 47.708984375 121.643554688 c 0
 47.1357421875 120.498046875 28.3128032163 81.0355929515 28.3128032163 44.8590914449 c 0
 28.3128032163 15.9176437844 39.6270335714 13.8145849354 49.4810463796 13.8145849354 c 0
 75.4696038938 13.8145849354 84.4500333673 51.2462703046 93.7543578135 107.373718145 c 0
 97.7813843143 131.666370576 96.78125 122.666015625 96.78125 127.23828125 c 0
93.4985293291 2 m 0
 93.4985293291 -2.14389059738 90.1438507925 -5.49852932905 86 -5.49852932905 c 0
 83.8299350997 -5.49852932905 81.7512045802 -4.56799301509 80.3008131531 -2.87586968353 c 0
 66.5014706709 13.2233632123 66.5014706709 13.2233632123 66.5014706709 16 c 0
 66.5014706709 20.1438905974 69.8561492075 23.4985293291 74 23.4985293291 c 0
 76.1700649003 23.4985293291 78.2487954198 22.5679930151 79.6991868469 20.8758696835 c 0
 93.4985293291 4.77663678769 93.4985293291 4.77663678769 93.4985293291 2 c 0
EndSplineSet
EndChar

StartChar: R
Encoding: 82 82 52
Width: 128
Flags: HW
LayerCount: 2
Fore
SplineSet
104.125976562 81.8779296875 m 1
 104.125976562 81.9697265625 104.115234375 82.017578125 104.115234375 82.017578125 c 1
 104.125976562 81.8779296875 l 1
26.498046875 144 m 0
 27 134 -0.4765625 15.009765625 22.205078125 15.009765625 c 0
 22.55859375 15.009765625 42.4052734375 70.8046875 42.4052734375 70.8046875 c 2
 43.1210203504 72.7816507158 48.7828310243 68.8465471968 50 71 c 0
 63 94 112.612920032 160.7193019 123 128 c 0
 123.48828125 126.461914062 119.106445312 82.43359375 119.106445312 82.115234375 c 0
 119.106445312 59.857421875 87.3154296875 53.0263671875 75.5947265625 53.0263671875 c 0
 71.4501953125 53.0263671875 68.095703125 56.380859375 68.095703125 60.5244140625 c 0
 68.095703125 64.4462890625 71.107421875 67.6923828125 75 68 c 0
 99.7548828125 69.9541015625 104.420898438 78.9970703125 104.126953125 81.8359375 c 0
 103.96484375 83.40625 109.933215832 119.851561048 108.478515625 124.143554688 c 0
 105.424804688 133.153320312 73 80 50.005859375 56.0078125 c 0
 47.9206067033 53.8320506874 22.0830078125 0 22 0 c 0
 6.314453125 0 10 72 11.501953125 144 c 0
 11.7060315878 153.783027896 26.1962867794 150.011718635 26.498046875 144 c 0
70.5014706709 60 m 0
 70.5014706709 64.1438905974 73.8561492075 67.4985293291 78 67.4985293291 c 0
 79.1020684694 67.4985293291 81.6446906274 67.2244618099 83.6487753741 64.9340792423 c 2
 97.6487753741 48.9340792423 l 2
 98.8819446774 47.5247428956 99.4985293291 45.7623714478 99.4985293291 44 c 0
 99.4985293291 39.8561094026 96.1438507925 36.5014706709 92 36.5014706709 c 0
 90.8979315306 36.5014706709 88.3553093726 36.7755381901 86.3512246259 39.0659207577 c 2
 72.3512246259 55.0659207577 l 2
 71.1180553226 56.4752571044 70.5014706709 58.2376285522 70.5014706709 60 c 0
EndSplineSet
EndChar

StartChar: U
Encoding: 85 85 53
Width: 128
Flags: HW
LayerCount: 2
Fore
SplineSet
26.498046875 144 m 0
 27 134 -0.4765625 15.009765625 22.205078125 15.009765625 c 0
 22.55859375 15.009765625 11 100 11 100 c 2
 11.50390625 102.029296875 68.284156634 52.6322104049 69 55 c 0
 82 98 112.612920032 160.7193019 123 128 c 0
 123.48828125 126.461914062 81.51171875 48.9091796875 81.51171875 48.58984375 c 4
 81.51171875 26.3330078125 49.720703125 19.501953125 38 19.501953125 c 4
 33.8564453125 19.501953125 30.501953125 22.8564453125 30.501953125 27 c 4
 30.501953125 30.921875 33.513671875 34.16796875 37.4052734375 34.4755859375 c 4
 62.16015625 36.4296875 66.826171875 45.47265625 66.5322265625 48.3115234375 c 4
 66.3701171875 49.8818359375 109.933215832 119.851561048 108.478515625 124.143554688 c 0
 105.424804688 133.153320312 56 -29 12 41 c 0
 10.396484375 43.5517578125 22.0830078125 0 22 0 c 0
 6.314453125 0 10 72 11.501953125 144 c 0
 11.7060315878 153.783027896 26.1962867794 150.011718635 26.498046875 144 c 0
66.53125 48.3525390625 m 5
 66.53125 48.4443359375 66.5205078125 48.4921875 66.5205078125 48.4921875 c 5
 66.53125 48.3525390625 l 5
EndSplineSet
EndChar

StartChar: V
Encoding: 86 86 54
Width: 128
Flags: HW
LayerCount: 2
Fore
SplineSet
26.498046875 144 m 0
 27 134 19.5234375 15.009765625 42.205078125 15.009765625 c 4
 42.55859375 15.009765625 11 100 11 100 c 2
 11.50390625 102.029296875 68.284156634 52.6322104049 69 55 c 0
 82 98 112.612920032 160.7193019 123 128 c 0
 123.48828125 126.461914062 81.51171875 48.9091796875 81.51171875 48.58984375 c 0
 81.51171875 26.3330078125 49.720703125 19.501953125 38 19.501953125 c 0
 33.8564453125 19.501953125 30.501953125 22.8564453125 30.501953125 27 c 0
 30.501953125 30.921875 33.513671875 34.16796875 37.4052734375 34.4755859375 c 0
 62.16015625 36.4296875 66.826171875 45.47265625 66.5322265625 48.3115234375 c 0
 66.3701171875 49.8818359375 109.933215832 119.851561048 108.478515625 124.143554688 c 0
 105.424804688 133.153320312 76 -29 32 41 c 4
 30.396484375 43.5517578125 42.0830078125 0 42 0 c 4
 26.314453125 0 10 72 11.501953125 144 c 0
 11.7060315878 153.783027896 26.1962867794 150.011718635 26.498046875 144 c 0
66.53125 48.3525390625 m 1
 66.53125 48.4443359375 66.5205078125 48.4921875 66.5205078125 48.4921875 c 1
 66.53125 48.3525390625 l 1
EndSplineSet
EndChar

StartChar: d
Encoding: 100 100 55
Width: 128
Flags: HW
LayerCount: 2
Fore
SplineSet
102 9 m 4
 98 9 95 12 95 16 c 6
 95 146 l 6
 95 150 98 153 102 153 c 4
 106 153 109 150 109 146 c 6
 109 16 l 6
 109 12 106 9 102 9 c 4
114.625 26.498046875 m 1
 133 26.4985293291 l 2
 136.999986908 26.4986343527 140.498529329 23.1438507925 140.498529329 19 c 0
 140.498529329 14.8561094026 137.143850793 11.5014706709 133 11.5014706709 c 2
 12 11.5014706709 l 2
 7.85610940262 11.5014706709 4.50147067095 14.8561492075 4.50147067095 19 c 0
 4.50147067095 20.0510564472 4.76682069806 22.9112660165 7.44977506403 24.9629371155 c 2
 7.44977506403 24.9629371155 25.6240234375 46.509765625 50.4423828125 71.328125 c 0
 68.5126953125 89.3984375 83.6953125 109.108398438 85.6103515625 120.275390625 c 0
 86.22265625 123.84765625 89.32421875 126.498046875 93 126.498046875 c 0
 97.1435546875 126.498046875 100.498046875 123.143554688 100.498046875 119 c 0
 100.498046875 118.721679688 100.232421875 109.392578125 89.435546875 93.486328125 c 1
 77.91796875 79.2998046875 52 46 33.2720684023 26.4985293291 c 1
 114.625 26.498046875 l 1
EndSplineSet
EndChar

StartChar: e
Encoding: 101 101 56
Width: 128
Flags: HW
LayerCount: 2
Fore
SplineSet
114.625 26.498046875 m 1
 133 26.4985293291 l 2
 136.999986908 26.4986343527 140.498529329 23.1438507925 140.498529329 19 c 0
 140.498529329 14.8561094026 137.143850793 11.5014706709 133 11.5014706709 c 2
 12 11.5014706709 l 2
 7.85610940262 11.5014706709 4.50147067095 14.8561492075 4.50147067095 19 c 0
 4.50147067095 20.0510564472 4.76682069806 22.9112660165 7.44977506403 24.9629371155 c 2
 7.44977506403 24.9629371155 25.6240234375 46.509765625 50.4423828125 71.328125 c 0
 68.5126953125 89.3984375 83.6953125 109.108398438 85.6103515625 120.275390625 c 0
 86.22265625 123.84765625 89.32421875 126.498046875 93 126.498046875 c 0
 97.1435546875 126.498046875 100.498046875 123.143554688 100.498046875 119 c 0
 100.498046875 118.721679688 100.232421875 109.392578125 89.435546875 93.486328125 c 1
 77.91796875 79.2998046875 52 46 33.2720684023 26.4985293291 c 1
 114.625 26.498046875 l 1
86.5014706709 113 m 0
 86.5014706709 117.143890597 89.8561492075 120.498529329 94 120.498529329 c 0
 96.4326110888 120.498529329 98.6561909471 119.334707727 100.053084016 117.429853543 c 0
 112.498529329 100.458791752 112.498529329 100.458791752 112.498529329 98 c 0
 112.498529329 96.5680581833 112.091478581 95.1361163666 111.277377085 93.8935403989 c 0
 91.8541235244 64.2475218066 91.8541235244 64.2475218066 91.3033008589 63.6966991411 c 0
 89.8398152121 62.2332134943 87.9199076061 61.5014706709 86 61.5014706709 c 0
 81.8561094026 61.5014706709 78.5014706709 64.8561492075 78.5014706709 69 c 0
 78.5014706709 70.4319418167 78.908521419 71.8638836334 79.7226229151 73.1064596011 c 2
 95.8746660899 97.7595781311 l 1
 86.5014706709 110.541208248 86.5014706709 110.541208248 86.5014706709 113 c 0
EndSplineSet
EndChar

StartChar: B
Encoding: 66 66 57
Width: 128
Flags: HW
LayerCount: 2
Fore
SplineSet
7.44977506403 24.9629371155 m 0
 10.2057678841 27.0706295212 96.1658636269 93.0706706942 96.1658636269 125.626048972 c 0
 96.1658636269 130.97963142 96.0190922685 136.15580605 66.397616005 138.525524151 c 0
 62.5090095861 138.836612665 59.5014706709 142.081401364 59.5014706709 146 c 0
 59.5014706709 150.143890597 62.8561492075 153.498529329 67 153.498529329 c 0
 68.5161109042 153.498529329 93.955884822 153.338893281 104.602228504 142.692549599 c 0
 109.138944855 138.155833247 111.121111084 132.182143223 111.121111084 125.345817743 c 0
 111.121111084 113.239362609 105.623828052 102.602641489 99.4354129782 93.4859726962 c 1
 110.854660347 92.8267483362 124.816453439 56.757304623 124.816453439 31.0281990378 c 0
 124.816453439 25.7498876156 123.984396436 11.5014706709 115 11.5014706709 c 2
 12 11.5014706709 l 2
 7.85610940262 11.5014706709 4.50147067095 14.8561492075 4.50147067095 19 c 0
 4.50147067095 20.0510564472 4.76682069806 22.9112660165 7.44977506403 24.9629371155 c 0
109.474683475 32.1383665929 m 0
 109.474683475 51.6104162911 101.021945577 73.3714527051 93.6966991411 80.6966991411 c 0
 92.8869834909 81.5064147913 92.3012671111 82.4558491823 91.9395500016 83.4676988905 c 1
 80.4218171454 69.2814733729 60.2253129328 48.9641530938 33.2720684023 26.4985293291 c 1
 109.213924831 26.4985293291 l 1
 109.372633432 28.0414389235 109.474683475 29.9547721572 109.474683475 32.1383665929 c 0
63 103.501470671 m 0
 58.8561094026 103.501470671 55.5014706709 106.856149207 55.5014706709 111 c 0
 55.5014706709 111.111091825 55.5014706709 111.111091825 56.504736537 145.22213127 c 0
 56.6239458855 149.275249122 59.9403357866 152.498529329 64 152.498529329 c 0
 68.1438905974 152.498529329 71.4985293291 149.143850793 71.4985293291 145 c 0
 71.4985293291 144.888908175 71.4985293291 144.888908175 70.495263463 110.77786873 c 0
 70.3760541145 106.724750878 67.0596642134 103.501470671 63 103.501470671 c 0
EndSplineSet
EndChar

StartChar: hyphen
Encoding: 45 45 58
Width: 128
Flags: HW
LayerCount: 2
Fore
SplineSet
67 32 m 4
 63 32 60 35 60 39 c 4
 60 43 63 46 67 46 c 4
 71 46 74 43 74 39 c 4
 74 35 71 32 67 32 c 4
57 32 m 0
 53 32 50 35 50 39 c 0
 50 43 53 46 57 46 c 0
 61 46 64 43 64 39 c 0
 64 35 61 32 57 32 c 0
52 32 m 0
 48 32 45 35 45 39 c 0
 45 43 48 46 52 46 c 0
 56 46 59 43 59 39 c 0
 59 35 56 32 52 32 c 0
72 32 m 0
 68 32 65 35 65 39 c 0
 65 43 68 46 72 46 c 0
 76 46 79 43 79 39 c 0
 79 35 76 32 72 32 c 0
62 32 m 0
 58 32 55 35 55 39 c 0
 55 43 58 46 62 46 c 0
 66 46 69 43 69 39 c 0
 69 35 66 32 62 32 c 0
EndSplineSet
EndChar

StartChar: X
Encoding: 88 88 59
Width: 128
Flags: HW
LayerCount: 2
Fore
SplineSet
62 9 m 0
 58 9 55 12 55 16 c 2
 55 146 l 2
 55 150 58 153 62 153 c 0
 66 153 69 150 69 146 c 2
 69 16 l 2
 69 12 66 9 62 9 c 0
74 134.498529329 m 0
 78.1438905974 134.498529329 81.4985293291 131.143850793 81.4985293291 127 c 0
 81.4985293291 125.877977343 81.2486092975 124.755954686 80.7487692344 123.725034556 c 0
 48.2001884919 56.5935867741 48.2001884919 56.5935867741 47.3033008589 55.6966991411 c 0
 45.8398152121 54.2332134943 43.9199076061 53.5014706709 42 53.5014706709 c 0
 37.8561094026 53.5014706709 34.5014706709 56.8561492075 34.5014706709 61 c 0
 34.5014706709 62.1220226572 34.7513907025 63.2440453143 35.2512307656 64.2749654444 c 0
 67.7998115081 131.406413226 67.7998115081 131.406413226 68.6966991411 132.303300859 c 0
 70.1601847879 133.766786506 72.0800923939 134.498529329 74 134.498529329 c 0
EndSplineSet
EndChar

StartChar: Z
Encoding: 90 90 60
Width: 128
Flags: HW
LayerCount: 2
Fore
SplineSet
72.8535037348 84.5297572074 m 1
 79.8004876238 92.4242510486 96.1658636269 111.021726173 96.1658636269 125.626048972 c 0
 96.1658636269 130.982499533 110 140 66.4783419107 138.519052273 c 4
 65.1128799869 138.472588562 63.6812704726 138.640274461 62.2027374167 138.640274461 c 0
 42.5566857085 138.640274461 27 142 26.4985293291 114 c 4
 26.3573246012 106.115725589 29.1390270015 100.982746412 33.1551318146 96.9666415994 c 0
 43.8422087162 86.2795646984 66.2399226798 84.7481465337 72.8535037348 84.5297572074 c 1
11.5014706709 114 m 4
 12 144 15.2521281604 152.647757983 60.9361269495 153.683536545 c 4
 119 155 111.121111084 136.505590751 111.121111084 125.345817743 c 0
 111.121111084 116.023370738 111.121111084 91.3859791997 33.2720684023 26.4985293291 c 1
 115 26.4985293291 l 2
 119.143890597 26.4985293291 122.498529329 23.1438507925 122.498529329 19 c 0
 122.498529329 14.8561094026 119.143850793 11.5014706709 115 11.5014706709 c 2
 12 11.5014706709 l 2
 7.85610940262 11.5014706709 4.50147067095 14.8561492075 4.50147067095 19 c 0
 4.50147067095 20.0510564472 4.76682069806 22.9112660165 7.44977506403 24.9629371155 c 0
 7.44977510505 24.9629374232 34.847901462 45.9158368754 59.4078492445 70.2969651646 c 1
 46.7536213124 71.9841335058 10.9325177063 79.7621168008 11.5014706709 114 c 4
EndSplineSet
EndChar

StartChar: x
Encoding: 120 120 61
Width: 128
Flags: HW
LayerCount: 2
Fore
SplineSet
62 9 m 0
 58 9 55 12 55 16 c 2
 55 96 l 6
 55 100 58 103 62 103 c 4
 66 103 69 100 69 96 c 6
 69 16 l 2
 69 12 66 9 62 9 c 0
74 84.498046875 m 4
 78.1435546875 84.498046875 81.498046875 81.1435546875 81.498046875 77 c 4
 81.498046875 75.8779296875 81.2490234375 74.755859375 80.7490234375 73.724609375 c 4
 48.2001953125 6.59375 48.2001953125 6.59375 47.3037109375 5.6962890625 c 4
 45.83984375 4.2333984375 43.919921875 3.501953125 42 3.501953125 c 4
 37.8564453125 3.501953125 34.501953125 6.8564453125 34.501953125 11 c 4
 34.501953125 12.1220703125 34.7509765625 13.244140625 35.2509765625 14.275390625 c 4
 67.7998046875 81.40625 67.7998046875 81.40625 68.6962890625 82.3037109375 c 4
 70.16015625 83.7666015625 72.080078125 84.498046875 74 84.498046875 c 4
EndSplineSet
EndChar

StartChar: z
Encoding: 122 122 62
Width: 128
Flags: HW
LayerCount: 2
Fore
SplineSet
95.498046875 18 m 0
 95.498046875 13.8564453125 92.1435546875 10.501953125 88 10.501953125 c 2
 69 10.501953125 l 2
 64.8564453125 10.501953125 61.501953125 13.8564453125 61.501953125 18 c 0
 61.501953125 22.1435546875 64.8564453125 25.498046875 69 25.498046875 c 2
 88 25.498046875 l 2
 92.1435546875 25.498046875 95.498046875 22.1435546875 95.498046875 18 c 0
62 9 m 0
 58 9 55 12 55 16 c 2
 55 86 l 6
 55 90 58 93 62 93 c 4
 66 93 69 90 69 86 c 6
 69 16 l 2
 69 12 66 9 62 9 c 0
65.498046875 88 m 4
 65.498046875 83.8564453125 62.1435546875 80.501953125 58 80.501953125 c 6
 39 80.501953125 l 6
 34.8564453125 80.501953125 31.501953125 83.8564453125 31.501953125 88 c 4
 31.501953125 92.1435546875 34.8564453125 95.498046875 39 95.498046875 c 6
 58 95.498046875 l 6
 62.1435546875 95.498046875 65.498046875 92.1435546875 65.498046875 88 c 4
EndSplineSet
EndChar

StartChar: K
Encoding: 75 75 63
Width: 128
Flags: HW
LayerCount: 2
Fore
SplineSet
74 134.498529329 m 0
 78.1438905974 134.498529329 81.4985293291 131.143850793 81.4985293291 127 c 0
 81.4985293291 125.877977343 81.2486092975 124.755954686 80.7487692344 123.725034556 c 0
 48.2001884919 56.5935867741 48.2001884919 56.5935867741 47.3033008589 55.6966991411 c 0
 45.8398152121 54.2332134943 43.9199076061 53.5014706709 42 53.5014706709 c 0
 37.8561094026 53.5014706709 34.5014706709 56.8561492075 34.5014706709 61 c 0
 34.5014706709 62.1220226572 34.7513907025 63.2440453143 35.2512307656 64.2749654444 c 0
 67.7998115081 131.406413226 67.7998115081 131.406413226 68.6966991411 132.303300859 c 0
 70.1601847879 133.766786506 72.0800923939 134.498529329 74 134.498529329 c 0
62 9 m 0
 58 9 55 12 55 16 c 2
 55 146 l 2
 55 150 58 153 62 153 c 0
 66 153 69 150 69 146 c 2
 69 16 l 2
 69 12 66 9 62 9 c 0
62.5014706709 100 m 0
 62.5014706709 104.143890597 65.8561492075 107.498529329 70 107.498529329 c 0
 72.8534530983 107.498529329 72.8534530983 107.498529329 83.9783589824 97.6097240988 c 0
 84.8046678252 96.8752273496 86.4985293291 95.0034503357 86.4985293291 92 c 0
 86.4985293291 87.8561094026 83.1438507925 84.5014706709 79 84.5014706709 c 0
 76.1465469017 84.5014706709 76.1465469017 84.5014706709 65.0216410176 94.3902759012 c 0
 64.1953321748 95.1247726504 62.5014706709 96.9965496643 62.5014706709 100 c 0
EndSplineSet
EndChar

StartChar: k
Encoding: 107 107 64
Width: 128
Flags: HW
LayerCount: 2
Fore
SplineSet
74 104.498046875 m 4
 78.1435546875 104.498046875 81.498046875 101.143554688 81.498046875 97 c 4
 81.498046875 95.8779296875 81.2490234375 94.755859375 80.7490234375 93.724609375 c 4
 48.2001953125 26.59375 48.2001953125 26.59375 47.3037109375 25.6962890625 c 4
 45.83984375 24.2333984375 43.919921875 23.501953125 42 23.501953125 c 4
 37.8564453125 23.501953125 34.501953125 26.8564453125 34.501953125 31 c 4
 34.501953125 32.1220703125 34.7509765625 33.244140625 35.2509765625 34.275390625 c 4
 67.7998046875 101.40625 67.7998046875 101.40625 68.6962890625 102.303710938 c 4
 70.16015625 103.766601562 72.080078125 104.498046875 74 104.498046875 c 4
62 9 m 0
 58 9 55 12 55 16 c 2
 55 146 l 2
 55 150 58 153 62 153 c 0
 66 153 69 150 69 146 c 2
 69 16 l 2
 69 12 66 9 62 9 c 0
62.501953125 70 m 4
 62.501953125 74.1435546875 65.8564453125 77.498046875 70 77.498046875 c 4
 72.853515625 77.498046875 72.853515625 77.498046875 83.978515625 67.609375 c 4
 84.8046875 66.875 86.498046875 65.00390625 86.498046875 62 c 4
 86.498046875 57.8564453125 83.1435546875 54.501953125 79 54.501953125 c 4
 76.146484375 54.501953125 76.146484375 54.501953125 65.021484375 64.390625 c 4
 64.1953125 65.125 62.501953125 66.99609375 62.501953125 70 c 4
EndSplineSet
EndChar

StartChar: p
Encoding: 112 112 65
Width: 128
Flags: HW
LayerCount: 2
Fore
SplineSet
46.498046875 144 m 0
 47 134 19.5234375 -34.990234375 42.205078125 -34.990234375 c 4
 42.55859375 -34.990234375 42.4052734375 70.8046875 42.4052734375 70.8046875 c 2
 43.1210203504 72.7816507158 48.7828310243 68.8465471968 50 71 c 0
 63 94 112.612920032 160.7193019 123 128 c 0
 123.48828125 126.461914062 119.106445312 82.43359375 119.106445312 82.115234375 c 0
 119.106445312 59.857421875 87.3154296875 53.0263671875 75.5947265625 53.0263671875 c 0
 71.4501953125 53.0263671875 68.095703125 56.380859375 68.095703125 60.5244140625 c 0
 68.095703125 64.4462890625 71.107421875 67.6923828125 75 68 c 0
 99.7548828125 69.9541015625 104.420898438 78.9970703125 104.126953125 81.8359375 c 0
 103.96484375 83.40625 109.933215832 119.851561048 108.478515625 124.143554688 c 0
 105.424804688 133.153320312 73 80 50.005859375 56.0078125 c 0
 47.9206067033 53.8320506874 42.0830078125 -50 42 -50 c 4
 26.314453125 -50 30 72 31.501953125 144 c 0
 31.7060546875 153.783203125 46.1962890625 150.01171875 46.498046875 144 c 0
104.125976562 81.8779296875 m 1
 104.125976562 81.9697265625 104.115234375 82.017578125 104.115234375 82.017578125 c 1
 104.125976562 81.8779296875 l 1
EndSplineSet
EndChar

StartChar: q
Encoding: 113 113 66
Width: 128
Flags: HW
LayerCount: 2
Fore
SplineSet
72.853515625 34.529296875 m 5
 79.80078125 42.423828125 96.166015625 61.021484375 96.166015625 75.6259765625 c 4
 96.166015625 80.982421875 96.0068359375 86.146484375 66.478515625 88.51953125 c 4
 65.1142578125 88.59765625 63.681640625 88.640625 62.203125 88.640625 c 4
 42.556640625 88.640625 26.498046875 82.869140625 26.498046875 64 c 4
 26.498046875 56.1142578125 29.138671875 50.982421875 33.1552734375 46.966796875 c 4
 43.841796875 36.279296875 66.240234375 34.748046875 72.853515625 34.529296875 c 5
11.501953125 64 m 4
 11.501953125 73.78515625 15.240234375 103.68359375 60.9365234375 103.68359375 c 4
 107.208007812 103.68359375 111.12109375 86.505859375 111.12109375 75.345703125 c 4
 111.12109375 66.0234375 111.12109375 41.3857421875 33.2724609375 -23.501953125 c 5
 115 -23.501953125 l 6
 119.143554688 -23.501953125 122.498046875 -26.8564453125 122.498046875 -31 c 4
 122.498046875 -35.1435546875 119.143554688 -38.498046875 115 -38.498046875 c 6
 12 -38.498046875 l 6
 7.8564453125 -38.498046875 4.501953125 -35.1435546875 4.501953125 -31 c 4
 4.501953125 -29.94921875 4.7666015625 -27.0888671875 7.4501953125 -25.037109375 c 4
 7.4501953125 -25.037109375 34.84765625 -4.083984375 59.408203125 20.296875 c 5
 46.75390625 21.984375 11.501953125 29.7578125 11.501953125 64 c 4
EndSplineSet
EndChar

StartChar: comma
Encoding: 44 44 67
Width: 128
Flags: HW
LayerCount: 2
Fore
SplineSet
50 -7 m 4
 46 -7 43 -4 43 0 c 4
 43 4 46 7 50 7 c 4
 54 7 57 4 57 0 c 4
 57 -4 54 -7 50 -7 c 4
53 -5 m 4
 49 -5 46 -2 46 2 c 4
 46 6 49 9 53 9 c 4
 57 9 60 6 60 2 c 4
 60 -2 57 -5 53 -5 c 4
55 -3 m 4
 51 -3 48 0 48 4 c 4
 48 8 51 11 55 11 c 4
 59 11 62 8 62 4 c 4
 62 0 59 -3 55 -3 c 4
57 -2 m 0
 53 -2 50 1 50 5 c 0
 50 9 53 12 57 12 c 0
 61 12 64 9 64 5 c 0
 64 1 61 -2 57 -2 c 0
60 0 m 0
 56 0 53 3 53 7 c 0
 53 11 56 14 60 14 c 0
 64 14 67 11 67 7 c 0
 67 3 64 0 60 0 c 0
62 2 m 0
 58 2 55 5 55 9 c 0
 55 13 58 16 62 16 c 0
 66 16 69 13 69 9 c 0
 69 5 66 2 62 2 c 0
EndSplineSet
EndChar

StartChar: acute
Encoding: 180 180 68
Width: 128
Flags: HW
LayerCount: 2
Fore
SplineSet
58 163 m 4
 54 163 51 166 51 170 c 4
 51 174 54 177 58 177 c 4
 62 177 65 174 65 170 c 4
 65 166 62 163 58 163 c 4
61 165 m 4
 57 165 54 168 54 172 c 4
 54 176 57 179 61 179 c 4
 65 179 68 176 68 172 c 4
 68 168 65 165 61 165 c 4
63 167 m 4
 59 167 56 170 56 174 c 4
 56 178 59 181 63 181 c 4
 67 181 70 178 70 174 c 4
 70 170 67 167 63 167 c 4
65 168 m 4
 61 168 58 171 58 175 c 4
 58 179 61 182 65 182 c 4
 69 182 72 179 72 175 c 4
 72 171 69 168 65 168 c 4
68 170 m 4
 64 170 61 173 61 177 c 4
 61 181 64 184 68 184 c 4
 72 184 75 181 75 177 c 4
 75 173 72 170 68 170 c 4
70 172 m 4
 66 172 63 175 63 179 c 4
 63 183 66 186 70 186 c 4
 74 186 77 183 77 179 c 4
 77 175 74 172 70 172 c 4
EndSplineSet
EndChar

StartChar: Eacute
Encoding: 201 201 69
Width: 128
Flags: HW
LayerCount: 2
Fore
SplineSet
58 163 m 4
 54 163 51 166 51 170 c 4
 51 174 54 177 58 177 c 4
 62 177 65 174 65 170 c 4
 65 166 62 163 58 163 c 4
61 165 m 4
 57 165 54 168 54 172 c 4
 54 176 57 179 61 179 c 4
 65 179 68 176 68 172 c 4
 68 168 65 165 61 165 c 4
63 167 m 4
 59 167 56 170 56 174 c 4
 56 178 59 181 63 181 c 4
 67 181 70 178 70 174 c 4
 70 170 67 167 63 167 c 4
65 168 m 4
 61 168 58 171 58 175 c 4
 58 179 61 182 65 182 c 4
 69 182 72 179 72 175 c 4
 72 171 69 168 65 168 c 4
68 170 m 4
 64 170 61 173 61 177 c 4
 61 181 64 184 68 184 c 4
 72 184 75 181 75 177 c 4
 75 173 72 170 68 170 c 4
70 172 m 4
 66 172 63 175 63 179 c 4
 63 183 66 186 70 186 c 4
 74 186 77 183 77 179 c 4
 77 175 74 172 70 172 c 4
106.166015625 145.625976562 m 0
 84 107 10.2058491293 27.0705232817 7.44977506403 24.9629371155 c 0
 4.76682069806 22.9112660165 4.50147067095 20.0510564472 4.50147067095 19 c 0
 4.50147067095 14.8561492075 8.00000396576 11.5014388533 12 11.5014706709 c 2
 12 11.5014706709 72.6522882589 11.5014706709 72.65234375 11.501953125 c 1
 115 11.5014706709 l 2
 122.999994319 11.5013795294 124.189408299 21.7156349961 124.189453125 25.41796875 c 1
 103 26 l 1
 33.2720684023 26.4985293291 l 1
 111.121111084 91.3859791997 121.12109375 136.0234375 121.12109375 145.345703125 c 0
 121.12109375 152.182617188 109.061523438 150.670898438 106.166015625 145.625976562 c 0
25 20.5014706709 m 0
 25.2694837021 20.5014706709 52.7705078125 35.501953125 81.0400390625 37.5205078125 c 4
 84.95703125 37.80078125 88 41.0576171875 88 45 c 4
 88 49.1435546875 84.6455078125 52.498046875 80.501953125 52.498046875 c 4
 80.232421875 52.498046875 52.7305162979 37.4985293291 24.4617790047 35.4793338081 c 0
 20.5446849492 35.1995413756 17.5014706709 31.942198322 17.5014706709 28 c 0
 17.5014706709 23.8561492075 20.8561094026 20.5014706709 25 20.5014706709 c 0
EndSplineSet
EndChar

StartChar: eacute
Encoding: 233 233 70
Width: 128
Flags: HW
LayerCount: 2
Fore
SplineSet
58 163 m 4
 54 163 51 166 51 170 c 4
 51 174 54 177 58 177 c 4
 62 177 65 174 65 170 c 4
 65 166 62 163 58 163 c 4
61 165 m 4
 57 165 54 168 54 172 c 4
 54 176 57 179 61 179 c 4
 65 179 68 176 68 172 c 4
 68 168 65 165 61 165 c 4
63 167 m 4
 59 167 56 170 56 174 c 4
 56 178 59 181 63 181 c 4
 67 181 70 178 70 174 c 4
 70 170 67 167 63 167 c 4
65 168 m 4
 61 168 58 171 58 175 c 4
 58 179 61 182 65 182 c 4
 69 182 72 179 72 175 c 4
 72 171 69 168 65 168 c 4
68 170 m 4
 64 170 61 173 61 177 c 4
 61 181 64 184 68 184 c 4
 72 184 75 181 75 177 c 4
 75 173 72 170 68 170 c 4
70 172 m 4
 66 172 63 175 63 179 c 4
 63 183 66 186 70 186 c 4
 74 186 77 183 77 179 c 4
 77 175 74 172 70 172 c 4
58 163 m 4
 54 163 51 166 51 170 c 4
 51 174 54 177 58 177 c 4
 62 177 65 174 65 170 c 4
 65 166 62 163 58 163 c 4
61 165 m 4
 57 165 54 168 54 172 c 4
 54 176 57 179 61 179 c 4
 65 179 68 176 68 172 c 4
 68 168 65 165 61 165 c 4
63 167 m 4
 59 167 56 170 56 174 c 4
 56 178 59 181 63 181 c 4
 67 181 70 178 70 174 c 4
 70 170 67 167 63 167 c 4
65 168 m 4
 61 168 58 171 58 175 c 4
 58 179 61 182 65 182 c 4
 69 182 72 179 72 175 c 4
 72 171 69 168 65 168 c 4
68 170 m 4
 64 170 61 173 61 177 c 4
 61 181 64 184 68 184 c 4
 72 184 75 181 75 177 c 4
 75 173 72 170 68 170 c 4
70 172 m 4
 66 172 63 175 63 179 c 4
 63 183 66 186 70 186 c 4
 74 186 77 183 77 179 c 4
 77 175 74 172 70 172 c 4
114.625 26.498046875 m 1
 133 26.4985293291 l 2
 136.999986908 26.4986343527 140.498529329 23.1438507925 140.498529329 19 c 0
 140.498529329 14.8561094026 137.143850793 11.5014706709 133 11.5014706709 c 2
 12 11.5014706709 l 2
 7.85610940262 11.5014706709 4.50147067095 14.8561492075 4.50147067095 19 c 0
 4.50147067095 20.0510564472 4.76682069806 22.9112660165 7.44977506403 24.9629371155 c 2
 7.44977506403 24.9629371155 25.6240234375 46.509765625 50.4423828125 71.328125 c 0
 68.5126953125 89.3984375 83.6953125 109.108398438 85.6103515625 120.275390625 c 0
 86.22265625 123.84765625 89.32421875 126.498046875 93 126.498046875 c 0
 97.1435546875 126.498046875 100.498046875 123.143554688 100.498046875 119 c 0
 100.498046875 118.721679688 100.232421875 109.392578125 89.435546875 93.486328125 c 1
 77.91796875 79.2998046875 52 46 33.2720684023 26.4985293291 c 1
 114.625 26.498046875 l 1
86.5014706709 113 m 0
 86.5014706709 117.143890597 89.8561492075 120.498529329 94 120.498529329 c 0
 96.4326110888 120.498529329 98.6561909471 119.334707727 100.053084016 117.429853543 c 0
 112.498529329 100.458791752 112.498529329 100.458791752 112.498529329 98 c 0
 112.498529329 96.5680581833 112.091478581 95.1361163666 111.277377085 93.8935403989 c 0
 91.8541235244 64.2475218066 91.8541235244 64.2475218066 91.3033008589 63.6966991411 c 0
 89.8398152121 62.2332134943 87.9199076061 61.5014706709 86 61.5014706709 c 0
 81.8561094026 61.5014706709 78.5014706709 64.8561492075 78.5014706709 69 c 0
 78.5014706709 70.4319418167 78.908521419 71.8638836334 79.7226229151 73.1064596011 c 2
 95.8746660899 97.7595781311 l 1
 86.5014706709 110.541208248 86.5014706709 110.541208248 86.5014706709 113 c 0
EndSplineSet
EndChar

StartChar: Aacute
Encoding: 193 193 71
Width: 128
Flags: HW
LayerCount: 2
Fore
SplineSet
100 40 m 0
 100 65 91 94 84 104 c 0
 83 105 82 106 82 107 c 1
 70 88 52 58 33 26 c 1
 99 33 l 2
 99 35 100 37 100 40 c 0
4 23 m 0
 4 24 4 28 7 31 c 2
 7 31 25 60 50 92 c 0
 68 116 84 141 86 156 c 0
 87 161 89 164 93 164 c 0
 97 164 101 159 101 154 c 2
 101 154 101 141 90 120 c 1
 102 119 115 73 115 39 c 0
 115 37 115 35 115 33 c 1
 134 33 l 2
 138 33 141 28 141 23 c 0
 141 18 138 13 134 13 c 2
 12 13 l 2
 8 13 4 18 4 23 c 0
58 163 m 4
 54 163 51 166 51 170 c 4
 51 174 54 177 58 177 c 4
 62 177 65 174 65 170 c 4
 65 166 62 163 58 163 c 4
61 165 m 4
 57 165 54 168 54 172 c 4
 54 176 57 179 61 179 c 4
 65 179 68 176 68 172 c 4
 68 168 65 165 61 165 c 4
63 167 m 4
 59 167 56 170 56 174 c 4
 56 178 59 181 63 181 c 4
 67 181 70 178 70 174 c 4
 70 170 67 167 63 167 c 4
65 168 m 4
 61 168 58 171 58 175 c 4
 58 179 61 182 65 182 c 4
 69 182 72 179 72 175 c 4
 72 171 69 168 65 168 c 4
68 170 m 4
 64 170 61 173 61 177 c 4
 61 181 64 184 68 184 c 4
 72 184 75 181 75 177 c 4
 75 173 72 170 68 170 c 4
70 172 m 4
 66 172 63 175 63 179 c 4
 63 183 66 186 70 186 c 4
 74 186 77 183 77 179 c 4
 77 175 74 172 70 172 c 4
EndSplineSet
EndChar

StartChar: Iacute
Encoding: 205 205 72
Width: 128
Flags: HW
LayerCount: 2
Fore
SplineSet
62 9 m 0
 58 9 55 12 55 16 c 2
 55 146 l 2
 55 150 58 153 62 153 c 0
 66 153 69 150 69 146 c 2
 69 16 l 2
 69 12 66 9 62 9 c 0
58 163 m 4
 54 163 51 166 51 170 c 4
 51 174 54 177 58 177 c 4
 62 177 65 174 65 170 c 4
 65 166 62 163 58 163 c 4
61 165 m 4
 57 165 54 168 54 172 c 4
 54 176 57 179 61 179 c 4
 65 179 68 176 68 172 c 4
 68 168 65 165 61 165 c 4
63 167 m 4
 59 167 56 170 56 174 c 4
 56 178 59 181 63 181 c 4
 67 181 70 178 70 174 c 4
 70 170 67 167 63 167 c 4
65 168 m 4
 61 168 58 171 58 175 c 4
 58 179 61 182 65 182 c 4
 69 182 72 179 72 175 c 4
 72 171 69 168 65 168 c 4
68 170 m 4
 64 170 61 173 61 177 c 4
 61 181 64 184 68 184 c 4
 72 184 75 181 75 177 c 4
 75 173 72 170 68 170 c 4
70 172 m 4
 66 172 63 175 63 179 c 4
 63 183 66 186 70 186 c 4
 74 186 77 183 77 179 c 4
 77 175 74 172 70 172 c 4
EndSplineSet
EndChar

StartChar: Oacute
Encoding: 211 211 73
Width: 128
Flags: HW
LayerCount: 2
Fore
SplineSet
96.78125 127.23828125 m 4
 96.78125 142.000976562 90.32421875 145.670898438 81.080078125 145.670898438 c 4
 79.21484375 145.670898438 73.06640625 145.436523438 65.3818359375 142.654296875 c 4
 63.490234375 140.568359375 61.6396484375 138.616210938 59.88671875 136.765625 c 4
 54.2978515625 130.864257812 49.8857421875 125.998046875 47.708984375 121.643554688 c 4
 47.1357421875 120.498046875 28.3128032163 81.0355929515 28.3128032163 44.8590914449 c 0
 28.3128032163 15.9176437844 39.6270335714 13.8145849354 49.4810463796 13.8145849354 c 0
 75.4696038938 13.8145849354 84.4500333673 51.2462703046 93.7543578135 107.373718145 c 0
 97.7813843143 131.666370576 96.78125 122.666015625 96.78125 127.23828125 c 4
49.0042785044 -1.12423209016 m 0
 34.3818629625 -1.12423209016 12.9562770289 5.37674056393 12.9562770289 43.4795606663 c 0
 12.9562770289 78.2188364261 29.6328125 119.0390625 34.291015625 128.356445312 c 4
 37.8994140625 135.572265625 43.455078125 141.23046875 48.9921875 147.075195312 c 4
 56.8779296875 155.400390625 56.8779296875 155.400390625 58.072265625 155.90625 c 4
 59.453125 156.490234375 69.75390625 160.6796875 81.2861328125 160.6796875 c 4
 98.185546875 160.6796875 111.7734375 150.9375 111.7734375 127.250976562 c 4
 111.7734375 121.391601562 112.773256809 130.391746417 108.548317583 104.905204385 c 0
 102.585960772 68.9378568517 97.1158278289 30.3646389786 77.3538149553 10.602626105 c 0
 69.9550867205 3.20389787016 60.3444819103 -1.12423209016 49.0042785044 -1.12423209016 c 0
58 163 m 4
 54 163 51 166 51 170 c 4
 51 174 54 177 58 177 c 4
 62 177 65 174 65 170 c 4
 65 166 62 163 58 163 c 4
61 165 m 4
 57 165 54 168 54 172 c 4
 54 176 57 179 61 179 c 4
 65 179 68 176 68 172 c 4
 68 168 65 165 61 165 c 4
63 167 m 4
 59 167 56 170 56 174 c 4
 56 178 59 181 63 181 c 4
 67 181 70 178 70 174 c 4
 70 170 67 167 63 167 c 4
65 168 m 4
 61 168 58 171 58 175 c 4
 58 179 61 182 65 182 c 4
 69 182 72 179 72 175 c 4
 72 171 69 168 65 168 c 4
68 170 m 4
 64 170 61 173 61 177 c 4
 61 181 64 184 68 184 c 4
 72 184 75 181 75 177 c 4
 75 173 72 170 68 170 c 4
70 172 m 4
 66 172 63 175 63 179 c 4
 63 183 66 186 70 186 c 4
 74 186 77 183 77 179 c 4
 77 175 74 172 70 172 c 4
EndSplineSet
EndChar

StartChar: Uacute
Encoding: 218 218 74
Width: 128
Flags: HW
LayerCount: 2
Fore
SplineSet
26.498046875 144 m 0
 27 134 -0.4765625 15.009765625 22.205078125 15.009765625 c 0
 22.55859375 15.009765625 11 100 11 100 c 2
 11.50390625 102.029296875 68.284156634 52.6322104049 69 55 c 0
 82 98 112.612920032 160.7193019 123 128 c 0
 123.48828125 126.461914062 81.51171875 48.9091796875 81.51171875 48.58984375 c 4
 81.51171875 26.3330078125 49.720703125 19.501953125 38 19.501953125 c 4
 33.8564453125 19.501953125 30.501953125 22.8564453125 30.501953125 27 c 4
 30.501953125 30.921875 33.513671875 34.16796875 37.4052734375 34.4755859375 c 4
 62.16015625 36.4296875 66.826171875 45.47265625 66.5322265625 48.3115234375 c 4
 66.3701171875 49.8818359375 109.933215832 119.851561048 108.478515625 124.143554688 c 0
 105.424804688 133.153320312 56 -29 12 41 c 0
 10.396484375 43.5517578125 22.0830078125 0 22 0 c 0
 6.314453125 0 10 72 11.501953125 144 c 0
 11.7060315878 153.783027896 26.1962867794 150.011718635 26.498046875 144 c 0
66.53125 48.3525390625 m 5
 66.53125 48.4443359375 66.5205078125 48.4921875 66.5205078125 48.4921875 c 5
 66.53125 48.3525390625 l 5
58 163 m 4
 54 163 51 166 51 170 c 4
 51 174 54 177 58 177 c 4
 62 177 65 174 65 170 c 4
 65 166 62 163 58 163 c 4
61 165 m 4
 57 165 54 168 54 172 c 4
 54 176 57 179 61 179 c 4
 65 179 68 176 68 172 c 4
 68 168 65 165 61 165 c 4
63 167 m 4
 59 167 56 170 56 174 c 4
 56 178 59 181 63 181 c 4
 67 181 70 178 70 174 c 4
 70 170 67 167 63 167 c 4
65 168 m 4
 61 168 58 171 58 175 c 4
 58 179 61 182 65 182 c 4
 69 182 72 179 72 175 c 4
 72 171 69 168 65 168 c 4
68 170 m 4
 64 170 61 173 61 177 c 4
 61 181 64 184 68 184 c 4
 72 184 75 181 75 177 c 4
 75 173 72 170 68 170 c 4
70 172 m 4
 66 172 63 175 63 179 c 4
 63 183 66 186 70 186 c 4
 74 186 77 183 77 179 c 4
 77 175 74 172 70 172 c 4
EndSplineSet
EndChar

StartChar: oacute
Encoding: 243 243 75
Width: 128
Flags: HW
LayerCount: 2
Fore
SplineSet
109.474683475 32.1383665929 m 0
 109.474683475 51.6104162911 101.021945577 73.3714527051 93.6966991411 80.6966991411 c 0
 92.8869834909 81.5064147913 92.3012671111 82.4558491823 91.9395500016 83.4676988905 c 1
 80.4218171454 69.2814733729 60.2253129328 48.9641530938 33.2720684023 26.4985293291 c 1
 109.213924831 26.4985293291 l 1
 109.372633432 28.0414389235 109.474683475 29.9547721572 109.474683475 32.1383665929 c 0
4.50147067095 19 m 0
 4.50147067095 20.0510564472 4.76682069806 22.9112660165 7.44977506403 24.9629371155 c 2
 7.44977506403 24.9629371155 35.6241634281 46.5094881032 60.4425630292 71.3278877043 c 0
 78.5127051989 89.3980298741 93.6956468794 109.108587211 95.609905732 120.275097185 c 0
 96.2223519108 123.847699894 99.3237567227 126.498529329 103 126.498529329 c 0
 107.143890597 126.498529329 110.498529329 123.143850793 110.498529329 119 c 0
 110.498529329 118.721906826 110.232869382 109.392603499 99.4354129782 93.4859726962 c 1
 110.854660347 92.8267483362 124.816453439 56.757304623 124.816453439 31.0281990378 c 0
 124.816453439 25.7498876156 123.984396436 11.5014706709 115 11.5014706709 c 2
 12 11.5014706709 l 2
 7.85610940262 11.5014706709 4.50147067095 14.8561492075 4.50147067095 19 c 0
58 163 m 4
 54 163 51 166 51 170 c 4
 51 174 54 177 58 177 c 4
 62 177 65 174 65 170 c 4
 65 166 62 163 58 163 c 4
61 165 m 4
 57 165 54 168 54 172 c 4
 54 176 57 179 61 179 c 4
 65 179 68 176 68 172 c 4
 68 168 65 165 61 165 c 4
63 167 m 4
 59 167 56 170 56 174 c 4
 56 178 59 181 63 181 c 4
 67 181 70 178 70 174 c 4
 70 170 67 167 63 167 c 4
65 168 m 4
 61 168 58 171 58 175 c 4
 58 179 61 182 65 182 c 4
 69 182 72 179 72 175 c 4
 72 171 69 168 65 168 c 4
68 170 m 4
 64 170 61 173 61 177 c 4
 61 181 64 184 68 184 c 4
 72 184 75 181 75 177 c 4
 75 173 72 170 68 170 c 4
70 172 m 4
 66 172 63 175 63 179 c 4
 63 183 66 186 70 186 c 4
 74 186 77 183 77 179 c 4
 77 175 74 172 70 172 c 4
EndSplineSet
EndChar

StartChar: uacute
Encoding: 250 250 76
Width: 128
Flags: HW
LayerCount: 2
Fore
SplineSet
26.498046875 84 m 0
 27 74 8.314453125 24.4736328125 30.9970703125 24.4736328125 c 0
 31.349609375 24.4736328125 31.54296875 24.484375 31.54296875 24.484375 c 2
 34.1318359375 24.6142578125 36.6640625 24.6806640625 39.1376953125 24.6806640625 c 0
 53.3662109375 24.6806640625 68.7529296875 112.995117188 79.146484375 80.27734375 c 0
 79.634765625 78.740234375 82 44.3193359375 82 44 c 0
 82 21.7431640625 109.647460938 26.8828125 114 16 c 4
 116 11 86.5009765625 13.3544921875 86.5009765625 17.498046875 c 0
 86.5009765625 21.419921875 79.177734375 16.73046875 76 19 c 0
 69 24 67.826171875 25.47265625 67.5322265625 28.3115234375 c 0
 67.3701171875 29.8818359375 65.0908203125 51.9130859375 64.625 56.4208984375 c 0
 61.5703125 65.4306640625 73.255859375 9.6875 39.1435546875 9.6875 c 0
 36.1298828125 9.6875 30.875 9.46484375 30.791015625 9.46484375 c 0
 15.1064453125 9.46484375 10 43 11.501953125 84 c 0
 11.8603515625 93.7783203125 26.1962890625 90.01171875 26.498046875 84 c 0
67.53125 28.3525390625 m 1
 67.53125 28.4443359375 67.5205078125 28.4921875 67.5205078125 28.4921875 c 1
 67.53125 28.3525390625 l 1
58 163 m 4
 54 163 51 166 51 170 c 4
 51 174 54 177 58 177 c 4
 62 177 65 174 65 170 c 4
 65 166 62 163 58 163 c 4
61 165 m 4
 57 165 54 168 54 172 c 4
 54 176 57 179 61 179 c 4
 65 179 68 176 68 172 c 4
 68 168 65 165 61 165 c 4
63 167 m 4
 59 167 56 170 56 174 c 4
 56 178 59 181 63 181 c 4
 67 181 70 178 70 174 c 4
 70 170 67 167 63 167 c 4
65 168 m 4
 61 168 58 171 58 175 c 4
 58 179 61 182 65 182 c 4
 69 182 72 179 72 175 c 4
 72 171 69 168 65 168 c 4
68 170 m 4
 64 170 61 173 61 177 c 4
 61 181 64 184 68 184 c 4
 72 184 75 181 75 177 c 4
 75 173 72 170 68 170 c 4
70 172 m 4
 66 172 63 175 63 179 c 4
 63 183 66 186 70 186 c 4
 74 186 77 183 77 179 c 4
 77 175 74 172 70 172 c 4
EndSplineSet
EndChar

StartChar: yacute
Encoding: 253 253 77
Width: 128
Flags: HW
LayerCount: 2
Fore
SplineSet
46.498046875 84 m 4
 47 74 48.314453125 24.4736328125 70.9970703125 24.4736328125 c 4
 71.349609375 24.4736328125 71.54296875 24.484375 71.54296875 24.484375 c 6
 74.1318359375 24.6142578125 66.6640625 24.6806640625 69.1376953125 24.6806640625 c 4
 83.3662109375 24.6806640625 88.7529296875 112.995117188 99.146484375 80.27734375 c 4
 99.634765625 78.740234375 102 44.3193359375 102 44 c 4
 102 21.7431640625 55.6474609375 -17.1171875 60 -28 c 4
 62 -33 106.500976562 13.3544921875 106.500976562 17.498046875 c 4
 106.500976562 21.419921875 99.177734375 16.73046875 96 19 c 4
 89 24 87.826171875 25.47265625 87.5322265625 28.3115234375 c 4
 87.3701171875 29.8818359375 85.0908203125 51.9130859375 84.625 56.4208984375 c 4
 81.5703125 65.4306640625 103.255859375 9.6875 69.1435546875 9.6875 c 4
 66.1298828125 9.6875 70.875 9.46484375 70.791015625 9.46484375 c 4
 55.1064453125 9.46484375 30 43 31.501953125 84 c 4
 31.8603515625 93.7783203125 46.1962890625 90.01171875 46.498046875 84 c 4
87.53125 28.3525390625 m 5
 87.53125 28.4443359375 87.5205078125 28.4921875 87.5205078125 28.4921875 c 5
 87.53125 28.3525390625 l 5
58 163 m 4
 54 163 51 166 51 170 c 4
 51 174 54 177 58 177 c 4
 62 177 65 174 65 170 c 4
 65 166 62 163 58 163 c 4
61 165 m 4
 57 165 54 168 54 172 c 4
 54 176 57 179 61 179 c 4
 65 179 68 176 68 172 c 4
 68 168 65 165 61 165 c 4
63 167 m 4
 59 167 56 170 56 174 c 4
 56 178 59 181 63 181 c 4
 67 181 70 178 70 174 c 4
 70 170 67 167 63 167 c 4
65 168 m 4
 61 168 58 171 58 175 c 4
 58 179 61 182 65 182 c 4
 69 182 72 179 72 175 c 4
 72 171 69 168 65 168 c 4
68 170 m 4
 64 170 61 173 61 177 c 4
 61 181 64 184 68 184 c 4
 72 184 75 181 75 177 c 4
 75 173 72 170 68 170 c 4
70 172 m 4
 66 172 63 175 63 179 c 4
 63 183 66 186 70 186 c 4
 74 186 77 183 77 179 c 4
 77 175 74 172 70 172 c 4
EndSplineSet
EndChar

StartChar: aacute
Encoding: 225 225 78
Width: 128
Flags: HW
LayerCount: 2
Fore
SplineSet
99.474609375 32.138671875 m 0
 99.474609375 51.6103515625 91.021484375 73.37109375 83.6962890625 80.6962890625 c 0
 82.88671875 81.5068359375 82.30078125 82.4560546875 81.939453125 83.4677734375 c 1
 70.421875 69.28125 52 46 33.2720684023 26.4985293291 c 5
 99.2138671875 26.498046875 l 1
 99.373046875 28.041015625 99.474609375 29.955078125 99.474609375 32.138671875 c 0
4.50147067095 19 m 0
 4.50147067095 20.0510564472 4.76682069806 22.9112660165 7.44977506403 24.9629371155 c 2
 7.44977506403 24.9629371155 25.6240234375 46.509765625 50.4423828125 71.328125 c 0
 68.5126953125 89.3984375 83.6953125 109.108398438 85.6103515625 120.275390625 c 0
 86.22265625 123.84765625 89.32421875 126.498046875 93 126.498046875 c 0
 97.1435546875 126.498046875 100.498046875 123.143554688 100.498046875 119 c 0
 100.498046875 118.721679688 100.232421875 109.392578125 89.435546875 93.486328125 c 1
 100.854492188 92.8271484375 114.81640625 56.7568359375 114.81640625 31.0283203125 c 0
 114.81640625 29.4765625 114.755859375 27.9638671875 114.625 26.498046875 c 1
 133 26.4985293291 l 2
 137.143890597 26.4985293291 140.498529329 23.1438507925 140.498529329 19 c 0
 140.498529329 14.8561094026 137.143850793 11.5014706709 133 11.5014706709 c 2
 12 11.5014706709 l 2
 7.85610940262 11.5014706709 4.50147067095 14.8561492075 4.50147067095 19 c 0
58 163 m 4
 54 163 51 166 51 170 c 4
 51 174 54 177 58 177 c 4
 62 177 65 174 65 170 c 4
 65 166 62 163 58 163 c 4
61 165 m 4
 57 165 54 168 54 172 c 4
 54 176 57 179 61 179 c 4
 65 179 68 176 68 172 c 4
 68 168 65 165 61 165 c 4
63 167 m 4
 59 167 56 170 56 174 c 4
 56 178 59 181 63 181 c 4
 67 181 70 178 70 174 c 4
 70 170 67 167 63 167 c 4
65 168 m 4
 61 168 58 171 58 175 c 4
 58 179 61 182 65 182 c 4
 69 182 72 179 72 175 c 4
 72 171 69 168 65 168 c 4
68 170 m 4
 64 170 61 173 61 177 c 4
 61 181 64 184 68 184 c 4
 72 184 75 181 75 177 c 4
 75 173 72 170 68 170 c 4
70 172 m 4
 66 172 63 175 63 179 c 4
 63 183 66 186 70 186 c 4
 74 186 77 183 77 179 c 4
 77 175 74 172 70 172 c 4
EndSplineSet
EndChar

StartChar: iacute
Encoding: 237 237 79
Width: 128
Flags: HW
LayerCount: 2
Fore
SplineSet
62 9 m 0
 58 9 55 12 55 16 c 2
 55 86 l 2
 55 90 58 93 62 93 c 0
 66 93 69 90 69 86 c 2
 69 16 l 2
 69 12 66 9 62 9 c 0
58 163 m 4
 54 163 51 166 51 170 c 4
 51 174 54 177 58 177 c 4
 62 177 65 174 65 170 c 4
 65 166 62 163 58 163 c 4
61 165 m 4
 57 165 54 168 54 172 c 4
 54 176 57 179 61 179 c 4
 65 179 68 176 68 172 c 4
 68 168 65 165 61 165 c 4
63 167 m 4
 59 167 56 170 56 174 c 4
 56 178 59 181 63 181 c 4
 67 181 70 178 70 174 c 4
 70 170 67 167 63 167 c 4
65 168 m 4
 61 168 58 171 58 175 c 4
 58 179 61 182 65 182 c 4
 69 182 72 179 72 175 c 4
 72 171 69 168 65 168 c 4
68 170 m 4
 64 170 61 173 61 177 c 4
 61 181 64 184 68 184 c 4
 72 184 75 181 75 177 c 4
 75 173 72 170 68 170 c 4
70 172 m 4
 66 172 63 175 63 179 c 4
 63 183 66 186 70 186 c 4
 74 186 77 183 77 179 c 4
 77 175 74 172 70 172 c 4
EndSplineSet
EndChar

StartChar: Yacute
Encoding: 221 221 80
Width: 128
Flags: HW
LayerCount: 2
Fore
SplineSet
26.498046875 144 m 0
 27 134 -0.4765625 15.009765625 22.205078125 15.009765625 c 0
 22.55859375 15.009765625 11 100 11 100 c 2
 11.50390625 102.029296875 68.284156634 52.6322104049 69 55 c 4
 82 98 112.612920032 160.7193019 123 128 c 0
 123.48828125 126.461914062 122.511507167 18.9087336483 122.511507167 18.5900766814 c 0
 122.511507167 -3.66725592694 90.7207921246 -10.4985293291 79 -10.4985293291 c 0
 74.8561094026 -10.4985293291 71.5014706709 -7.14385079251 71.5014706709 -3 c 0
 71.5014706709 0.921500987842 74.5133822204 4.16782995647 78.4054882905 4.47510148832 c 0
 103.160219926 6.42942240692 107.826053296 15.4725209597 107.532412213 18.3112134155 c 0
 107.369966482 19.8816117565 109.933215832 119.851561048 108.478515625 124.143554688 c 0
 105.424804688 133.153320312 56 -29 12 41 c 0
 10.396484375 43.5517578125 22.0830078125 0 22 0 c 0
 6.314453125 0 10 72 11.501953125 144 c 0
 11.7060315878 153.783027896 26.1962867794 150.011718635 26.498046875 144 c 0
107.531347325 18.3526373858 m 1
 107.531347325 18.4444685365 107.520360505 18.4923738714 107.520360505 18.4923738714 c 1
 107.531347325 18.3526373858 l 1
58 163 m 4
 54 163 51 166 51 170 c 4
 51 174 54 177 58 177 c 4
 62 177 65 174 65 170 c 4
 65 166 62 163 58 163 c 4
61 165 m 4
 57 165 54 168 54 172 c 4
 54 176 57 179 61 179 c 4
 65 179 68 176 68 172 c 4
 68 168 65 165 61 165 c 4
63 167 m 4
 59 167 56 170 56 174 c 4
 56 178 59 181 63 181 c 4
 67 181 70 178 70 174 c 4
 70 170 67 167 63 167 c 4
65 168 m 4
 61 168 58 171 58 175 c 4
 58 179 61 182 65 182 c 4
 69 182 72 179 72 175 c 4
 72 171 69 168 65 168 c 4
68 170 m 4
 64 170 61 173 61 177 c 4
 61 181 64 184 68 184 c 4
 72 184 75 181 75 177 c 4
 75 173 72 170 68 170 c 4
70 172 m 4
 66 172 63 175 63 179 c 4
 63 183 66 186 70 186 c 4
 74 186 77 183 77 179 c 4
 77 175 74 172 70 172 c 4
EndSplineSet
EndChar

StartChar: uni0000
Encoding: 0 0 81
Width: 256
Flags: HW
LayerCount: 2
Fore
SplineSet
149 -18 m 1
 161 -2 168 17 173 39 c 1
 188 33 l 1
 187 28 185 26 182 26 c 0
 181 23 179 21 178 19 c 1
 197 10 207 0 207 -10 c 0
 207 -18 202 -24 200 -20 c 1
 196 -8 187 3 176 13 c 1
 170 0 161 -12 151 -23 c 1
 149 -18 l 1
169 122 m 1
 185 117 193 109 193 100 c 0
 193 93 187 89 185 92 c 1
 182 102 176 111 167 118 c 1
 169 122 l 1
206 134 m 1
 206 159 l 1
 225 155 l 1
 232 151 223 147 219 147 c 1
 219 134 l 1
 226 134 l 1
 236 143 l 5
 244 133 l 2
 247.306358382 128.49132948 243 128 240 128 c 2
 219 128 l 1
 219 93 l 2
 219 82 215 76 206 76 c 1
 206 83 202 87 196 87 c 1
 196 93 l 1
 196 93 206 89 206 94 c 1
 206 128 l 1
 164 128 l 1
 164 134 l 1
 206 134 l 1
184 172 m 1
 224 172 l 1
 233 181 l 5
 243 172 l 2
 247.808219178 166.821917808 240 166 237 166 c 2
 123 166 l 1
 123 102 l 1
 137 117 148 137 155 161 c 1
 169 152 l 1
 175 149 166 146 162 147 c 1
 160 142 157 138 155 134 c 2
 155 76 l 1
 150 71 142 72 142 72 c 1
 142 116 l 1
 136 107 133 104 126 98 c 1
 123 102 l 1
 123 65 l 2
 123 26 113 -5 100 -28 c 1
 96 -25 l 1
 105 0 110 30 110 65 c 2
 110 181 l 1
 127 172 l 1
 171 172 l 1
 171 200 l 1
 189 196 l 1
 197 194 188 188 184 188 c 1
 184 172 l 1
219 65 m 1
 226 69 l 5
 240 62 l 2
 243.690531178 59.3949191686 237 56 234 55 c 2
 234 -10 l 2
 234 -22 229 -28 220 -28 c 1
 220 -20 216 -16 210 -16 c 1
 210 -10 l 1
 210 -10 221 -12 221 -6 c 1
 221 59 l 1
 178 59 l 1
 178 58 178 58 178 57 c 0
 197 47 207 37 207 28 c 0
 207 20 202 14 200 18 c 1
 195 30 187 41 176 52 c 1
 170 38 161 26 151 15 c 1
 149 20 l 1
 158 31 164 44 169 59 c 1
 141 59 l 1
 141 -24 l 1
 136.666666667 -28.8617685759 128 -28 128 -28 c 1
 128 73 l 1
 143 65 l 1
 171 65 l 1
 173 73 175 82 176 91 c 1
 191 85 l 1
 197 83 187 78 184 78 c 0
 183 73 182 69 180 65 c 1
 219 65 l 1
100 2 m 1
 100 -3 l 1
 29 -29 l 1
 29 -35 25 -37 23 -33 c 1
 14 -15 l 1
 62 -5 l 1
 72 55 l 1
 87 51 l 1
 98 48 88.6669921875 42.3330078125 84 43 c 1
 68 -4 l 1
 100 2 l 1
24 61 m 1
 24 142 l 1
 40 135 l 1
 77 135 l 1
 84 144 l 1
 100 133 l 1
 106.301299255 128.999742527 96.5621814708 126.333011685 92 125 c 1
 92 69 l 1
 88 64 78 65 78 65 c 1
 78 77 l 1
 38 77 l 1
 38 65 l 1
 33 60 24 61 24 61 c 1
32 52 m 1
 45.3330078125 36.6669921875 52 23 52 11 c 0
 52 0.3330078125 40 -6 39 1 c 1
 38.3330078125 18.3330078125 35 34.6669921875 29 50 c 1
 32 52 l 1
16 171 m 1
 16 177 l 1
 76 177 l 1
 86 192 l 1
 105 177 l 1
 110 173 102.666992188 171 98 171 c 2
 16 171 l 1
78 129 m 1
 38 129 l 1
 38 83 l 1
 78 83 l 1
 78 129 l 1
EndSplineSet
EndChar

